<svg width="343" height="407" viewBox="0 0 343 407" fill="none" xmlns="http://www.w3.org/2000/svg">
<path fill-rule="evenodd" clip-rule="evenodd" d="M288.732 1.28701C284.402 1.90027 278.248 3.00911 275.058 3.75082C271.867 4.4917 268.324 5.28976 267.185 5.52346C263.205 6.34059 248.531 11.0221 247.751 11.7232C247.318 12.1127 246.287 12.4309 245.46 12.4309C244.634 12.4309 243.31 12.7607 242.518 13.1643C241.727 13.5679 238.842 14.9908 236.107 16.3259C226.042 21.2394 210.435 30.667 204.97 35.1355C203.798 36.0944 201.56 37.7891 199.997 38.9029C195.658 41.9949 181.806 56.1537 177.655 61.7401C175.623 64.4749 173.586 66.9868 173.128 67.3216C172.67 67.6564 172.572 67.9357 172.91 67.9431C173.249 67.9498 172.69 68.9128 171.667 70.0829C168.606 73.5851 160.315 89.7403 160.296 92.2389C160.286 93.516 161.676 97.1715 163.385 100.364C165.095 103.555 167.003 107.172 167.625 108.401C168.248 109.63 169.729 112.313 170.918 114.364C172.107 116.415 173.108 118.28 173.143 118.508C173.21 118.943 175.187 123.255 179.854 133.138C181.394 136.399 182.653 139.406 182.653 139.819C182.653 140.234 183.375 142.066 184.257 143.892C185.721 146.922 186.137 148.305 187.279 153.936C187.488 154.962 187.93 155.801 188.263 155.8C188.596 155.799 190.146 152.958 191.707 149.485C194.501 143.273 194.53 143.09 193.522 138.091C192.96 135.297 191.991 131.146 191.369 128.867C188.098 116.866 187.397 93.5102 190.007 83.5025C190.808 80.4312 191.165 77.4478 190.801 76.8727C189.79 75.2815 190.036 69.3661 191.175 67.8835C195.995 61.6059 205.029 64.726 205.029 72.6694C205.029 76.7086 203.525 78.9105 199.798 80.3276C195.721 81.8773 194.77 85.6878 194.717 100.69C194.673 113.239 195.477 120.814 197.872 130.388L198.874 134.395L201.539 129.092C203.005 126.176 204.855 123.068 205.653 122.185C206.449 121.302 208.073 119.084 209.261 117.256C210.449 115.428 215.255 110.393 219.941 106.068C232.318 94.6439 234.212 92.7602 236.952 89.1469C238.311 87.3561 240.075 85.2113 240.872 84.3818C241.67 83.5514 242.323 82.5304 242.323 82.1127C242.323 81.695 242.631 81.2293 243.007 81.0768C244.147 80.6168 251.73 68.742 254.735 62.7097C257.087 57.9885 257.392 56.7868 256.569 55.4691C254.764 52.5794 255.378 49.2147 258.132 46.8968C262.03 43.6175 264.246 43.3805 267.539 45.8924C270.215 47.9335 271.31 50.4777 271.13 54.2327C271.051 55.8719 267.465 59.5946 265.918 59.6418C264.725 59.6791 262.67 62.2291 259.524 67.5793C258.04 70.1028 256.011 73.5329 255.015 75.2011C254.019 76.8693 253.424 78.5898 253.693 79.024C253.961 79.4583 253.767 79.5577 253.26 79.2453C252.743 78.9246 251.698 79.6845 250.873 80.9815C250.065 82.2494 249.21 83.4735 248.972 83.7014C246.964 85.6207 240.015 95.6367 237.639 100.036C236.018 103.04 233.981 106.653 233.113 108.066C232.244 109.479 230.801 112.127 229.906 113.95C229.011 115.773 227.526 118.384 226.605 119.751C225.684 121.118 224.927 122.552 224.925 122.937C224.914 124.271 234.692 122.496 241.908 119.852C243.276 119.352 244.581 118.906 244.809 118.864C249.53 117.985 256.877 114.324 263.139 109.732C268.497 105.802 268.865 105.197 269.125 99.8682C269.315 95.9806 269.718 94.8552 271.378 93.5798C274.708 91.0207 280.064 91.8022 282.697 95.2314C283.252 95.9549 283.719 98.1129 283.733 100.026C283.755 103.014 283.367 103.805 280.988 105.62C279.463 106.783 277.412 107.734 276.43 107.734C275.447 107.734 273.988 108.387 273.187 109.185C269.446 112.911 261.239 118.617 255.79 121.282C252.485 122.897 249.781 124.045 249.781 123.831C249.781 123.617 248.943 123.973 247.917 124.623C246.078 125.787 240.839 127.26 239.629 126.953C239.287 126.866 239.008 127.106 239.008 127.485C239.008 127.866 238.542 128.192 237.972 128.213C235.844 128.288 222.368 130.881 221.582 131.367C221.132 131.645 220.177 133.006 219.461 134.392C217.591 138.006 210.84 157.267 210.54 159.844C210.4 161.039 210.064 162.575 209.793 163.259C207.931 167.963 203.905 197.273 204.974 198.342C205.408 198.776 206.343 198.33 207.236 197.263C210.143 193.79 221.225 185.094 227.82 181.112C231.466 178.91 234.636 176.875 234.864 176.59C235.092 176.304 238.155 174.666 241.671 172.949C245.187 171.232 248.289 169.463 248.565 169.016C248.841 168.57 249.414 168.419 249.838 168.681C250.263 168.943 250.61 168.763 250.61 168.28C250.61 167.798 251.077 167.404 251.646 167.405C252.216 167.407 256.971 165.317 262.212 162.761C267.454 160.205 273.421 157.364 275.472 156.449C284.732 152.313 286.66 151.054 287.393 148.662C287.795 147.347 288.405 145.524 288.748 144.613C289.091 143.701 289.831 141.277 290.391 139.226C290.951 137.175 291.7 134.564 292.054 133.425C292.408 132.285 293.151 129.116 293.704 126.381C294.258 123.646 295.019 120.476 295.396 119.337C296.714 115.351 298.489 108.104 299.453 102.762C299.989 99.7994 300.742 96.0701 301.127 94.4748C301.513 92.8795 302.278 88.4044 302.827 84.5301C303.377 80.6558 304.136 76.7401 304.515 75.8285C304.894 74.9169 305.399 71.9335 305.64 69.1987C306.691 57.2144 307.647 48.9719 308.066 48.2932C308.48 47.6253 308.885 20.516 308.699 6.00827L308.622 0L302.613 0.0853594C299.308 0.132597 293.062 0.672927 288.732 1.28701ZM45.3806 27.9579C45.1402 28.877 44.1358 30.072 43.1488 30.614C40.8839 31.8562 30.0332 48.3504 24.3074 59.2539C16.2413 74.6136 14.4065 78.7721 10.0416 91.5743C9.10923 94.3091 7.70286 98.4113 6.91639 100.69C2.29535 114.084 0.113284 130.048 0.0080345 151.243C-0.0980439 172.475 0.788703 179.314 6.13489 198.48C7.15175 202.126 8.94597 207.534 10.1219 210.497C12.4648 216.403 20.0502 231.383 21.0314 232.043C21.3704 232.271 22.311 233.763 23.1224 235.358C24.7682 238.595 26.4514 240.792 34.4056 250.085C40.2109 256.868 43.9949 260.532 50.0348 265.216C52.0751 266.799 54.2456 268.56 54.8597 269.129C55.4729 269.699 56.508 270.165 57.1586 270.165C57.81 270.165 58.3429 270.457 58.3429 270.813C58.3429 271.168 60.8606 272.754 63.9368 274.335C67.0139 275.915 69.6551 277.488 69.8068 277.831C69.9593 278.172 70.7234 278.452 71.5057 278.452C72.288 278.452 73.2825 278.802 73.716 279.229C74.1486 279.657 75.622 280.186 76.9895 280.405C78.3569 280.623 79.5693 280.879 79.6829 280.974C79.7964 281.068 80.1702 281.198 80.5116 281.261C80.853 281.325 81.6279 281.692 82.2329 282.075C83.5613 282.917 91.2288 284.004 103.509 285.09C108.523 285.534 115.609 286.278 119.255 286.744C122.902 287.211 127.563 287.794 129.614 288.041C131.665 288.289 134.089 288.813 135.001 289.206C137.424 290.252 142.874 290.886 142.874 290.122C142.874 289.762 141.848 288.572 140.595 287.481C137.445 284.737 125.675 272.163 122.156 267.781C120.56 265.794 118.877 263.746 118.415 263.231C116.368 260.945 112.211 255.378 112.211 254.921C112.211 254.645 111.62 253.766 110.898 252.969C108.946 250.812 103.095 241.363 103.095 240.366C103.095 239.891 102.786 239.502 102.408 239.502C102.03 239.502 100.847 237.637 99.7797 235.358C98.7123 233.079 97.5736 231.215 97.2488 231.215C96.9239 231.215 96.4631 230.469 96.2245 229.557C95.8457 228.107 95.0941 227.9 90.2153 227.9C84.1373 227.9 74.1436 226.389 72.8872 225.28C72.4538 224.897 71.5637 224.585 70.909 224.585C69.4902 224.585 56.3332 218.279 54.8083 216.868C51.979 214.251 46.7372 210.497 45.9118 210.497C45.4021 210.497 45.1933 210.16 45.4477 209.748C46.0295 208.808 41.483 207.182 38.27 207.182C35.4274 207.182 33.7534 205.726 32.5169 202.177C31.7677 200.028 31.9153 199.037 33.4244 196.103C34.9468 193.144 35.6562 192.569 37.98 192.412C43.8988 192.013 47.5693 194.751 47.5693 199.564C47.5693 202.445 48.0756 203.298 51.7801 206.669C61.028 215.086 74.7974 221.034 85.7766 221.354C88.9332 221.446 91.6962 221.342 91.9159 221.122C92.1355 220.904 90.8484 217.294 89.0567 213.101C87.265 208.909 85.7915 205.296 85.7832 205.075C85.7476 204.129 82.7972 195.129 82.3986 194.751C82.1583 194.523 81.9428 193.963 81.9188 193.508C81.6039 187.457 78.9055 180.967 76.4152 180.267C72.3958 179.138 59.7418 173.148 59.31 172.171C59.1575 171.827 58.734 171.546 58.3686 171.546C57.1155 171.546 47.856 164.972 45.2745 162.25C38.638 155.252 35.9272 151.924 35.4614 150.199C35.1598 149.085 34.0691 148.109 32.7672 147.788C30.0158 147.109 27.939 144.781 27.2379 141.59C25.5472 133.892 34.7421 129.335 40.1927 135.17C42.7369 137.894 43.1422 140.171 41.7374 143.864C41.0869 145.575 41.1764 146.748 42.1029 148.683C43.5416 151.69 50.8826 159.619 55.0279 162.644C58.8666 165.445 69.9253 171.321 74.1916 172.826L77.592 174.025L77.1096 165.535C76.8444 160.865 76.1798 154.433 75.6328 151.243C74.4535 144.364 74.3242 127.81 75.2939 107.662C75.995 93.0875 75.995 93.0859 74.006 90.2583C72.9121 88.7036 71.7369 87.3063 71.3955 87.1547C69.4496 86.2895 72.6278 79.7616 75.8102 78.0859C79.7342 76.0199 85.7492 78.8608 86.8655 83.3077C87.4838 85.7707 86.3161 88.8561 83.921 91.087C82.2801 92.616 81.9743 93.9801 81.4414 102.147C80.5099 116.438 80.6127 143.316 81.6196 148.811C82.5528 153.9 88.6796 169.916 90.0363 170.81C90.4589 171.089 90.7266 171.58 90.6305 171.899C90.425 172.582 97.6855 186.962 99.4284 189.324C100.583 190.89 100.701 190.849 103.034 188.081C105.695 184.926 112.211 172.315 112.211 170.322C112.211 169.628 112.507 169.06 112.869 169.06C113.23 169.06 114.009 166.73 114.599 163.881C115.189 161.032 116.011 157.62 116.427 156.299C117.761 152.059 117.349 147.091 115.526 145.441C114.319 144.349 113.868 142.889 113.868 140.071C113.868 133.608 118.256 131.079 125.146 133.57C129.855 135.273 130.222 141.502 125.885 146.1C123.823 148.285 122.976 149.953 122.955 151.866C122.922 154.959 121.368 162.1 119.029 169.903C116.547 178.188 107.729 194.297 105.131 195.294C103.75 195.823 103.505 198.538 104.768 199.319C105.232 199.605 106.5 201.585 107.584 203.718C109.507 207.5 119.377 222.931 120.401 223.756C120.684 223.984 121.421 225.153 122.039 226.355C122.657 227.556 124.385 229.953 125.878 231.68L128.593 234.822L130.644 232.609C133.076 229.986 140.675 214.812 141.925 210.082C143.016 205.956 144.278 199.551 144.884 195.068C145.282 192.115 145.068 191.448 143.281 190.107C140.458 187.987 140.409 182.848 143.179 179.626C144.845 177.689 145.779 177.347 149.405 177.347C153.329 177.347 153.803 177.564 155.314 180.041C157.892 184.268 157.23 188.368 153.483 191.403C152.494 192.203 151.648 194.386 151.221 197.239C149.898 206.07 147.368 214.473 143.56 222.685C141.342 227.468 135.731 236.819 134.102 238.448C132.429 240.12 132.563 240.554 136.141 245.021C141.429 251.627 153.795 263.148 165.837 272.687C168.117 274.494 168.867 273.521 170.329 266.85C170.779 264.799 171.52 261.442 171.977 259.391C177.268 235.625 177.248 191.936 171.936 169.889C171.442 167.838 170.802 164.854 170.512 163.259C169.941 160.11 166.748 150.146 162.944 139.64C157.821 125.492 148.002 108.112 136.659 93.1141C127.278 80.7113 100.853 54.7283 97.577 54.6868C97.1932 54.6819 95.699 53.4703 94.2562 51.9935C92.8134 50.5175 90.2029 48.5642 88.4551 47.6534C86.7072 46.7435 84.8127 45.5592 84.2451 45.0231C83.6774 44.4869 81.0669 42.8128 78.4439 41.3021C75.8209 39.7913 72.5557 37.8977 71.1883 37.0938C64.7888 33.3339 51.5232 27.2129 48.8232 26.7745C46.2831 26.3626 45.7494 26.5458 45.3806 27.9579ZM282.102 177.313C280.962 177.678 277.42 178.444 274.229 179.014C271.038 179.585 267.751 180.401 266.924 180.829C266.097 181.257 264.643 181.756 263.695 181.939C261.18 182.423 256.129 184.102 255.168 184.771C254.712 185.089 252.568 186.004 250.403 186.804C248.237 187.604 246.466 188.662 246.466 189.156C246.466 189.651 246.226 189.814 245.932 189.52C245.452 189.04 240.501 192.306 234.864 196.821C230.992 199.921 222.733 208.407 218.793 213.332C212.266 221.49 200.057 243.048 200.057 246.415C200.057 246.999 199.311 249.022 198.399 250.909C197.488 252.796 196.742 255.108 196.742 256.047C196.742 256.987 196.406 258.404 195.994 259.196C195.583 259.987 194.862 262.126 194.394 263.949C193.926 265.773 192.927 269.395 192.174 271.999C191.422 274.603 191.027 277.093 191.298 277.531C191.836 278.402 198.545 275.894 206.524 271.839C209.234 270.462 211.839 269.336 212.314 269.336C212.79 269.336 213.303 269.057 213.455 268.715C213.607 268.372 215.036 267.449 216.632 266.662C218.227 265.875 221.024 264.341 222.847 263.253C224.67 262.165 228.027 260.175 230.306 258.83L234.45 256.383L235.016 248.978C235.329 244.906 235.926 239.896 236.343 237.844C237.266 233.311 241.41 222.927 242.899 221.419C244.123 220.179 244.549 218.465 245.093 212.597C245.856 204.359 253.352 202.126 259.151 208.408C260.502 209.872 260.672 212.224 259.768 216.932C259.598 217.82 253.912 220.435 252.147 220.438C250.261 220.44 249.577 221.223 247.249 226.035C245.762 229.111 243.861 233.867 243.025 236.601C241.521 241.526 240.917 251.131 242.115 251.074C242.458 251.059 245.347 249.21 248.538 246.97C251.729 244.728 256.39 241.522 258.897 239.848C261.404 238.172 263.58 236.477 263.731 236.08C263.884 235.683 264.505 235.358 265.113 235.358C265.72 235.358 266.342 235.075 266.494 234.728C266.646 234.381 269.591 231.989 273.038 229.411C276.486 226.834 280.215 223.391 281.325 221.76C282.436 220.13 283.551 218.793 283.803 218.79C284.054 218.786 286.115 217.013 288.38 214.847C293.515 209.94 296.618 207.308 300.334 204.708C301.93 203.592 303.703 202.224 304.276 201.669C304.848 201.115 306.154 200.405 307.176 200.094C310.013 199.229 311.937 197.191 311.937 195.048C311.937 193.722 312.947 192.449 315.16 190.984C318.223 188.956 318.528 188.912 321.311 190.074C325.325 191.751 327.197 194.801 326.573 198.646C325.816 203.308 324.324 204.28 317.915 204.289C312.628 204.295 309.238 205.43 305.563 208.425C305.004 208.881 302.806 210.559 300.68 212.154C295.024 216.397 263.175 248.877 262.314 251.28C262.105 251.864 264.321 252.03 269.041 251.782C275.409 251.448 276.842 251.035 284.068 247.449C290.647 244.184 292.133 243.097 292.496 241.286C293.483 236.361 294.242 235.014 296.854 233.557C298.886 232.422 299.991 232.245 301.151 232.866C302.009 233.325 303.389 233.704 304.216 233.707C306.104 233.716 307.793 237.244 307.793 241.18C307.793 245.339 305.082 247.789 300.48 247.789C298.081 247.789 295.014 248.795 290.588 251.034C277.413 257.697 272.969 258.858 262.254 258.438L254.839 258.148L249.678 262.706C246.84 265.213 243.744 268.022 242.798 268.947C241.854 269.872 237.91 273.21 234.035 276.364C230.161 279.518 226.327 282.766 225.515 283.583C224.704 284.399 222.093 286.512 219.714 288.279C217.335 290.045 214.643 292.337 213.731 293.372L212.074 295.253L215.803 294.751C217.854 294.476 222.329 294.015 225.748 293.728C233.644 293.066 247.712 290.586 251.024 289.272C251.936 288.91 255.292 287.783 258.483 286.766C269.804 283.16 287.085 273.8 295.112 266.928C304.707 258.713 316.909 245.834 316.909 243.922C316.909 243.36 317.429 242.601 318.066 242.237C319.449 241.444 327.678 227.932 327.681 226.45C327.682 225.88 327.962 225.41 328.304 225.407C329.048 225.4 330.997 221.386 330.997 219.862C330.997 219.269 331.37 218.784 331.826 218.784C332.282 218.784 332.655 218.295 332.655 217.696C332.655 217.098 333.401 215.065 334.312 213.178C335.224 211.291 335.97 209.192 335.97 208.513C335.97 207.835 336.343 207.049 336.799 206.767C337.254 206.485 337.627 205.42 337.627 204.398C337.627 203.376 337.936 202.187 338.312 201.753C339.378 200.529 342.386 189.308 342.896 184.658C343.368 180.352 343.168 180.289 321.053 177.758C309.994 176.491 285.539 176.212 282.102 177.313ZM43.6328 348.605C42.8695 348.92 42.5969 352.292 42.5969 361.428C42.5969 372.533 42.4303 374.004 40.9957 375.543C39.4145 377.241 39.4145 377.282 40.9957 378.98C42.4336 380.522 42.5969 381.993 42.5969 393.372C42.5969 405.826 42.6292 406.052 44.4615 406.503C45.4867 406.756 53.0389 406.856 61.2434 406.726L76.1607 406.49V403.175V399.861L63.1744 399.446C56.0315 399.218 49.8781 398.722 49.5002 398.342C49.1215 397.963 48.6798 394.257 48.5174 390.108C48.1361 380.385 48.1353 380.385 60.573 380.385H69.9452V377.071V373.756H61.2973C56.5412 373.756 51.7022 373.395 50.5444 372.955L48.4386 372.155L48.9582 364.046C49.2442 359.587 49.8881 355.664 50.3886 355.329C50.8892 354.994 57.0086 354.715 63.9866 354.707L76.6754 354.695L76.4176 351.587L76.1607 348.479L60.4147 348.329C51.7544 348.246 44.2029 348.37 43.6328 348.605ZM107.344 352.187C104.62 354.455 102.128 356.733 101.808 357.251C101.489 357.768 101.051 361.6 100.836 365.767C100.531 371.688 100.101 373.715 98.8698 375.052C96.87 377.223 96.8858 378.075 98.951 379.364C100.42 380.281 100.608 381.297 100.608 388.265C100.608 396.912 100.134 395.94 107.527 402.453C111.976 406.374 113.887 406.905 123.561 406.905C128.679 406.905 130.896 406.571 131.805 405.662C132.488 404.978 132.741 404.392 132.367 404.361C131.993 404.328 132.304 404.049 133.058 403.739C133.812 403.429 136.142 401.738 138.237 399.982C141.979 396.845 142.045 396.702 142.045 391.852V386.915L138.943 387.173C135.914 387.424 135.828 387.522 135.271 391.447C134.957 393.657 134.582 395.545 134.437 395.644C134.292 395.743 133.097 396.638 131.781 397.635C129.716 399.2 128.331 399.446 121.597 399.446H113.804L110.527 396.338L107.249 393.231L107.185 377.485C107.149 368.825 107.351 361.18 107.633 360.496C107.915 359.812 109.494 358.227 111.141 356.974C113.872 354.895 114.764 354.695 121.276 354.695C126.628 354.695 128.93 355.046 130.465 356.099C134.044 358.551 135.415 360.659 135.428 363.731C135.446 367.894 136.346 368.953 139.596 368.637L142.36 368.369L142.175 362.982C141.992 357.633 141.961 357.568 137.667 353.6C135.289 351.402 132.48 349.258 131.425 348.835C130.37 348.412 125.634 348.065 120.902 348.065H112.297L107.344 352.187ZM173.856 349.912C172.541 350.927 169.881 353.225 167.943 355.018L164.421 358.279V366.092C164.421 373.124 164.241 374.051 162.611 375.37L160.801 376.836L162.611 379.137C164.157 381.101 164.421 382.49 164.421 388.641V395.845L168.891 399.924C177.021 407.344 175.954 406.905 185.845 406.905H194.819L198.407 403.797C206.952 396.395 206.687 396.876 206.687 388.771C206.687 382.657 206.957 381.156 208.344 379.557C209.256 378.506 210.002 377.482 210.002 377.282C210.002 377.081 209.256 375.969 208.344 374.811C206.967 373.06 206.687 371.448 206.687 365.274C206.687 357.966 206.644 357.805 203.993 355.311C196.712 348.46 195.705 348.065 185.542 348.065C177.199 348.065 176.002 348.254 173.856 349.912ZM236.245 348.618C235.941 348.921 235.693 354.458 235.693 360.92C235.693 371.618 235.544 372.804 234.035 374.17C231.962 376.046 231.962 377.735 234.035 380.385C235.475 382.225 235.658 383.825 235.674 394.681L235.693 406.905H238.593H241.494V394.097C241.494 381.304 241.496 381.287 243.72 379.064L245.946 376.838L243.927 375.205C241.97 373.622 241.9 373.183 241.643 360.819L241.377 348.065H239.087C237.828 348.065 236.549 348.314 236.245 348.618ZM269.049 348.672C265.657 348.978 265.527 349.094 265.527 351.812V354.635L273.607 354.872L281.688 355.109L282.151 363.811C282.55 371.322 282.409 372.819 281.115 374.758C279.311 377.46 279.31 377.475 280.801 378.967C281.705 379.87 282.05 383.279 282.251 393.321L282.516 406.49L286.038 406.745L289.561 407V393.953C289.561 381.698 289.67 380.79 291.362 378.988L293.165 377.071L291.333 375.121C289.64 373.319 289.52 372.491 289.739 364.141L289.975 355.109L298.47 354.873L306.964 354.637V351.351V348.065L289.768 348.21C280.309 348.29 270.986 348.498 269.049 348.672ZM197.06 358.064L200.19 361.018L200.118 377.124L200.046 393.231L196.687 396.415L193.328 399.599L185.171 399.315C177.026 399.032 177.011 399.028 174.461 396.131L171.906 393.231L171.795 377.899C171.734 369.467 171.743 362.008 171.815 361.325C171.888 360.641 173.331 358.839 175.022 357.321L178.095 354.561L186.013 354.835C193.799 355.104 193.984 355.158 197.06 358.064Z" fill="#5DA37B"/>
</svg>
