<?xml version="1.0" encoding="utf-8"?>
<!-- Generator: Adobe Illustrator 22.0.1, SVG Export Plug-In . SVG Version: 6.00 Build 0)  -->
<svg version="1.1" id="Слой_1" xmlns="http://www.w3.org/2000/svg" xmlns:xlink="http://www.w3.org/1999/xlink" x="0px" y="0px"
	 viewBox="0 0 500 500" style="enable-background:new 0 0 500 500;" xml:space="preserve">
<style type="text/css">
	.st0{clip-path:url(#SVGID_2_);fill:#595D69;}
	.st1{clip-path:url(#SVGID_2_);fill:#616774;}
	.st2{opacity:0.4;clip-path:url(#SVGID_2_);}
	.st3{clip-path:url(#SVGID_2_);fill:#E7E9F2;}
	.st4{clip-path:url(#SVGID_2_);fill:#323846;}
	.st5{clip-path:url(#SVGID_2_);fill:#9FA0A2;}
	.st6{clip-path:url(#SVGID_2_);fill:#A1A2A4;}
	.st7{clip-path:url(#SVGID_2_);fill:#F4F6F9;}
	.st8{clip-path:url(#SVGID_2_);fill:#D5D7E2;}
	.st9{opacity:0.8;clip-path:url(#SVGID_2_);}
	.st10{fill:#DFE1EA;}
	.st11{fill:#3A4151;}
	.st12{fill:#D5D7E2;}
	.st13{clip-path:url(#SVGID_2_);fill:#FFCEA9;}
	.st14{clip-path:url(#SVGID_2_);fill:#38226D;}
	.st15{clip-path:url(#SVGID_2_);fill:#9C73FF;}
	.st16{clip-path:url(#SVGID_2_);fill:#8C50FF;}
	.st17{clip-path:url(#SVGID_2_);fill:#F4F4F4;}
	.st18{clip-path:url(#SVGID_2_);fill:#3A2C6D;}
	.st19{clip-path:url(#SVGID_2_);fill:#EDEDED;}
	.st20{clip-path:url(#SVGID_2_);fill:#666666;}
	.st21{clip-path:url(#SVGID_2_);fill:none;stroke:#323846;stroke-width:1.472;stroke-miterlimit:10;}
	.st22{clip-path:url(#SVGID_2_);fill:#E0E2E5;}
	.st23{clip-path:url(#SVGID_2_);fill:#3A4151;}
	.st24{clip-path:url(#SVGID_2_);enable-background:new    ;}
	.st25{clip-path:url(#SVGID_6_);enable-background:new    ;}
	.st26{clip-path:url(#SVGID_8_);}
	.st27{clip-path:url(#SVGID_10_);enable-background:new    ;}
	.st28{clip-path:url(#SVGID_12_);fill:#1D2029;}
	.st29{clip-path:url(#SVGID_12_);fill:#1E222A;}
	.st30{clip-path:url(#SVGID_12_);fill:#1F232B;}
	.st31{clip-path:url(#SVGID_12_);fill:#20242D;}
	.st32{clip-path:url(#SVGID_12_);fill:#21252E;}
	.st33{clip-path:url(#SVGID_12_);fill:#222630;}
	.st34{clip-path:url(#SVGID_12_);fill:#232731;}
	.st35{clip-path:url(#SVGID_12_);fill:#242832;}
	.st36{clip-path:url(#SVGID_12_);fill:#1C1F27;}
	.st37{clip-path:url(#SVGID_12_);fill:#1B1E26;}
	.st38{clip-path:url(#SVGID_12_);fill:#1A1D24;}
	.st39{clip-path:url(#SVGID_6_);fill:#2B303C;}
	.st40{clip-path:url(#SVGID_2_);fill:#252935;}
	.st41{clip-path:url(#SVGID_2_);fill:#2B303F;}
	.st42{clip-path:url(#SVGID_2_);fill:#828485;}
	.st43{clip-path:url(#SVGID_2_);fill:#BDBEC1;}
	.st44{clip-path:url(#SVGID_2_);fill:#7F8081;}
	.st45{clip-path:url(#SVGID_2_);fill:#D2D4D7;}
	.st46{clip-path:url(#SVGID_2_);fill:#FFFFFF;}
</style>
<g>
	<defs>
		<rect id="SVGID_1_" width="500" height="500"/>
	</defs>
	<clipPath id="SVGID_2_">
		<use xlink:href="#SVGID_1_"  style="overflow:visible;"/>
	</clipPath>
	<path class="st0" d="M230.4,175c0-0.3,0.1-0.6,0.2-0.9c0,0,0-0.1,0-0.1c0.1-0.3,0.2-0.6,0.3-0.9c0,0,0,0,0,0
		c0.1-0.3,0.3-0.6,0.5-0.9c0,0,0,0,0,0c0.2-0.3,0.4-0.6,0.6-0.9c0,0,0-0.1,0.1-0.1c0.2-0.2,0.4-0.5,0.6-0.7c0,0,0.1-0.1,0.1-0.1
		c0.2-0.2,0.3-0.3,0.5-0.5c0.1-0.1,0.2-0.1,0.2-0.2c0.2-0.2,0.5-0.4,0.8-0.5c0.3-0.1,0.5-0.3,0.7-0.3c0,0,0.1,0,0.1,0
		c0.2-0.1,0.4-0.1,0.7-0.1c0,0,0,0,0.1,0c0.2,0,0.4,0,0.6,0c0,0,0,0,0,0c0.2,0,0.4,0.1,0.6,0.2l-4.5-2.6c0,0,0,0,0,0
		c-0.1,0-0.1-0.1-0.2-0.1c-0.1,0-0.1-0.1-0.2-0.1c0,0-0.1,0-0.1,0c0,0,0,0,0,0c0,0,0,0,0,0c-0.1,0-0.2,0-0.2,0c-0.1,0-0.2,0-0.3,0
		c0,0-0.1,0-0.1,0c0,0,0,0-0.1,0c-0.1,0-0.1,0-0.2,0c-0.1,0-0.2,0-0.4,0.1c0,0-0.1,0-0.2,0.1c0,0-0.1,0-0.1,0c-0.1,0-0.1,0-0.2,0.1
		c-0.2,0.1-0.4,0.2-0.6,0.3c-0.3,0.1-0.5,0.3-0.8,0.5c-0.1,0.1-0.2,0.1-0.2,0.2c-0.1,0.1-0.2,0.2-0.4,0.3c-0.1,0.1-0.1,0.1-0.2,0.2
		c0,0-0.1,0.1-0.1,0.1c-0.1,0.1-0.1,0.1-0.2,0.2c-0.1,0.1-0.2,0.3-0.3,0.4c0,0-0.1,0.1-0.1,0.1c0,0,0,0-0.1,0.1c0,0-0.1,0.1-0.1,0.1
		c-0.1,0.1-0.2,0.2-0.2,0.3c-0.1,0.1-0.1,0.2-0.2,0.3c0,0,0,0,0,0c0,0,0,0,0,0c-0.1,0.1-0.1,0.2-0.2,0.3c-0.1,0.1-0.1,0.2-0.2,0.3
		c0,0.1-0.1,0.2-0.1,0.3c0,0,0,0,0,0c0,0,0,0,0,0c-0.1,0.1-0.1,0.2-0.1,0.4c0,0.1-0.1,0.3-0.1,0.4c0,0.1,0,0.1-0.1,0.2
		c0,0,0,0.1,0,0.1c0,0,0,0.1,0,0.1c0,0.2-0.1,0.3-0.1,0.5c0,0.1,0,0.2,0,0.3c0,0,0,0.1,0,0.1c0,0,0,0.1,0,0.1c0,0.3-0.1,0.5-0.1,0.8
		c0,1.3,0.4,2.1,1.2,2.6l4.5,2.6c-0.7-0.4-1.2-1.3-1.2-2.6c0-0.3,0-0.6,0.1-0.9C230.4,175.1,230.4,175,230.4,175"/>
	<path class="st1" d="M234.3,169.1c2.2-1.3,4-0.3,4,2.3c0,2.5-1.8,5.6-4,6.9c-2.2,1.3-4,0.3-4-2.3
		C230.3,173.5,232.1,170.4,234.3,169.1"/>
	<g class="st2">
		<g>
			<defs>
				<rect id="SVGID_3_" x="132.9" y="335.5" width="79.6" height="46"/>
			</defs>
			<clipPath id="SVGID_4_">
				<use xlink:href="#SVGID_3_"  style="overflow:visible;"/>
			</clipPath>
		</g>
	</g>
	<path class="st3" d="M202.8,376.8c-15.5,9-40.8,9-56.3,0c-15.5-9-15.5-23.5,0-32.5s40.8-9,56.3,0
		C218.4,353.3,218.4,367.8,202.8,376.8"/>
	<path class="st4" d="M337.6,239.3c-0.1,0.1-0.1,0.1-0.2,0.2C337.5,239.5,337.5,239.4,337.6,239.3
		C337.6,239.3,337.6,239.3,337.6,239.3"/>
	<path class="st4" d="M337.7,239.1c0-0.1,0.1-0.1,0.1-0.2c0,0,0,0,0,0C337.8,239,337.7,239.1,337.7,239.1"/>
	<path class="st4" d="M337.1,239.8C337.1,239.8,337.1,239.8,337.1,239.8c-0.1,0.1-0.1,0.1-0.2,0.2
		C336.9,239.9,337,239.9,337.1,239.8"/>
	<path class="st4" d="M330.6,238.7c0,0.1,0,0.1,0,0.2C330.7,238.8,330.7,238.8,330.6,238.7"/>
	<path class="st4" d="M330.8,239.1c0,0.1,0,0.1,0.1,0.2C330.8,239.2,330.8,239.2,330.8,239.1"/>
	<path class="st4" d="M331.1,239.5c0,0,0.1,0.1,0.1,0.1C331.2,239.6,331.1,239.6,331.1,239.5"/>
	<polygon class="st5" points="454.8,132.9 456,132.2 455.5,298.2 454.3,298.9 	"/>
	<polygon class="st6" points="238.4,7.9 239.6,7.2 456,132.2 454.8,132.9 	"/>
	<polygon class="st7" points="454.8,132.9 454.3,298.9 237.9,173.9 238.4,7.9 	"/>
	<path class="st0" d="M237.2,9c0-0.3,0.1-0.6,0.2-0.9c0,0,0-0.1,0-0.1c0.1-0.3,0.2-0.6,0.3-0.9c0,0,0,0,0,0c0.1-0.3,0.3-0.6,0.5-0.9
		c0,0,0,0,0,0c0.2-0.3,0.4-0.6,0.6-0.9c0,0,0-0.1,0.1-0.1c0.2-0.2,0.4-0.5,0.6-0.7c0,0,0.1-0.1,0.1-0.1c0.2-0.2,0.3-0.3,0.5-0.5
		c0.1-0.1,0.2-0.1,0.2-0.2c0.2-0.2,0.5-0.4,0.8-0.5c0.3-0.1,0.5-0.3,0.7-0.3c0,0,0.1,0,0.1,0c0.2-0.1,0.4-0.1,0.7-0.1c0,0,0,0,0.1,0
		c0.2,0,0.4,0,0.6,0c0,0,0,0,0,0c0.2,0,0.4,0.1,0.6,0.2l-4.5-2.6c0,0,0,0,0,0c-0.1,0-0.1-0.1-0.2-0.1c-0.1,0-0.1-0.1-0.2-0.1
		c0,0-0.1,0-0.1,0c0,0,0,0,0,0c0,0,0,0,0,0c-0.1,0-0.2,0-0.2,0c-0.1,0-0.2,0-0.3,0c0,0-0.1,0-0.1,0c0,0,0,0-0.1,0
		c-0.1,0-0.1,0-0.2,0c-0.1,0-0.2,0-0.4,0.1c0,0-0.1,0-0.2,0.1c0,0-0.1,0-0.1,0c-0.1,0-0.1,0-0.2,0.1c-0.2,0.1-0.4,0.2-0.6,0.3
		c-0.3,0.1-0.5,0.3-0.8,0.5c-0.1,0.1-0.2,0.1-0.2,0.2c-0.1,0.1-0.2,0.2-0.4,0.3c-0.1,0.1-0.1,0.1-0.2,0.2c0,0-0.1,0.1-0.1,0.1
		c-0.1,0.1-0.1,0.1-0.2,0.2c-0.1,0.1-0.2,0.3-0.3,0.4c0,0-0.1,0.1-0.1,0.1c0,0,0,0-0.1,0.1c0,0-0.1,0.1-0.1,0.1
		c-0.1,0.1-0.2,0.2-0.2,0.3c-0.1,0.1-0.1,0.2-0.2,0.3c0,0,0,0,0,0c0,0,0,0,0,0c-0.1,0.1-0.1,0.2-0.2,0.3c-0.1,0.1-0.1,0.2-0.2,0.3
		c0,0.1-0.1,0.2-0.1,0.3c0,0,0,0,0,0c0,0,0,0,0,0c-0.1,0.1-0.1,0.2-0.1,0.4c0,0.1-0.1,0.3-0.1,0.4c0,0.1,0,0.1-0.1,0.2
		c0,0,0,0.1,0,0.1c0,0,0,0.1,0,0.1c0,0.2-0.1,0.3-0.1,0.5c0,0.1,0,0.2,0,0.3c0,0,0,0.1,0,0.1c0,0,0,0.1,0,0.1c0,0.3-0.1,0.5-0.1,0.8
		c0,1.3,0.5,2.1,1.2,2.6l4.5,2.6c-0.7-0.4-1.2-1.3-1.2-2.6c0-0.3,0-0.6,0.1-0.9C237.2,9.1,237.2,9.1,237.2,9"/>
	<path class="st1" d="M241.1,3.2c2.2-1.3,4-0.3,4,2.3c0,2.5-1.8,5.6-4,6.9c-2.2,1.3-4,0.3-4-2.3C237.1,7.5,238.9,4.4,241.1,3.2"/>
	<path class="st8" d="M451,133.5L241,12.3c-1.8-1-2.4-3.3-1.4-5.1c1-1.8,3.3-2.4,5.1-1.4l210,121.2c1.8,1,2.4,3.3,1.4,5.1
		C455,133.9,452.7,134.5,451,133.5"/>
	<path class="st1" d="M454.8,134.9c0-0.3,0.1-0.6,0.2-0.9c0,0,0-0.1,0-0.1c0.1-0.3,0.2-0.6,0.3-0.9c0,0,0,0,0,0
		c0.1-0.3,0.3-0.6,0.5-0.9c0,0,0,0,0,0c0.2-0.3,0.4-0.6,0.6-0.9c0,0,0-0.1,0.1-0.1c0.2-0.2,0.4-0.5,0.6-0.7c0,0,0.1-0.1,0.1-0.1
		c0.2-0.2,0.3-0.3,0.5-0.5c0.1-0.1,0.2-0.1,0.2-0.2c0.2-0.2,0.5-0.4,0.8-0.5c0.3-0.1,0.5-0.3,0.7-0.3c0,0,0.1,0,0.1,0
		c0.2-0.1,0.4-0.1,0.7-0.1c0,0,0,0,0.1,0c0.2,0,0.4,0,0.6,0c0,0,0,0,0,0c0.2,0,0.4,0.1,0.6,0.2l-4.5-2.6c0,0,0,0,0,0
		c-0.1,0-0.1-0.1-0.2-0.1c-0.1,0-0.1-0.1-0.2-0.1c0,0-0.1,0-0.1,0c0,0,0,0,0,0c0,0,0,0,0,0c-0.1,0-0.2,0-0.2,0c-0.1,0-0.2,0-0.3,0
		c0,0-0.1,0-0.1,0c0,0,0,0-0.1,0c-0.1,0-0.1,0-0.2,0c-0.1,0-0.2,0-0.4,0.1c0,0-0.1,0-0.2,0.1c0,0-0.1,0-0.1,0c-0.1,0-0.1,0-0.2,0.1
		c-0.2,0.1-0.4,0.2-0.6,0.3c-0.3,0.1-0.5,0.3-0.8,0.5c-0.1,0.1-0.2,0.1-0.2,0.2c-0.1,0.1-0.2,0.2-0.4,0.3c-0.1,0.1-0.1,0.1-0.2,0.2
		c0,0-0.1,0.1-0.1,0.1c-0.1,0.1-0.1,0.1-0.2,0.2c-0.1,0.1-0.2,0.3-0.3,0.4c0,0-0.1,0.1-0.1,0.1c0,0,0,0.1-0.1,0.1
		c0,0-0.1,0.1-0.1,0.1c-0.1,0.1-0.2,0.2-0.2,0.3c-0.1,0.1-0.1,0.2-0.2,0.3l0,0c0,0,0,0,0,0c-0.1,0.1-0.1,0.2-0.2,0.3
		c-0.1,0.1-0.1,0.2-0.2,0.3c-0.1,0.1-0.1,0.2-0.1,0.3c0,0,0,0,0,0c0,0,0,0,0,0c-0.1,0.1-0.1,0.2-0.1,0.4c0,0.1-0.1,0.3-0.1,0.4
		c0,0.1,0,0.1-0.1,0.2c0,0,0,0.1,0,0.1c0,0,0,0.1,0,0.1c0,0.2-0.1,0.3-0.1,0.5c0,0.1,0,0.2,0,0.3c0,0,0,0.1,0,0.1c0,0,0,0.1,0,0.1
		c0,0.3-0.1,0.5-0.1,0.8c0,1.3,0.4,2.1,1.2,2.6l4.5,2.6c-0.7-0.4-1.2-1.3-1.2-2.6c0-0.3,0-0.6,0.1-0.9
		C454.8,135,454.8,135,454.8,134.9"/>
	<path class="st0" d="M458.7,129c2.2-1.3,4-0.3,4,2.3c0,2.5-1.8,5.6-4,6.9c-2.2,1.3-4,0.3-4-2.3C454.7,133.4,456.5,130.3,458.7,129"
		/>
	<g class="st9">
		<g>
			<path class="st10" d="M322.2,124.6l-57.3-33.1c-3.4-1.9-6.1-0.4-6.1,3.5v48.8c0,3.9,2.7,8.6,6.1,10.6l22.4,12.9l6.2,16l6.2-8.8
				l22.4,12.9c3.4,1.9,6.1,0.4,6.1-3.5v-48.8C328.3,131.2,325.6,126.5,322.2,124.6"/>
			<polygon class="st11" points="283.6,52.9 283.6,71.4 290.9,75.6 290.9,79.8 279.1,73 279.2,50.3 			"/>
			<polygon class="st11" points="305,65.2 305,69.4 298,65.3 298,70.4 304.5,74.1 304.5,78.3 298,74.5 298,79.7 305.4,84 
				305.4,88.2 293.5,81.3 293.6,58.6 			"/>
			<path class="st11" d="M315.4,70.8c1,0.6,1.9,1.2,2.7,1.8c0.8,0.6,1.5,1.2,2.2,1.9l0,4.7c-0.3-0.5-0.7-0.9-1.1-1.3
				c-0.4-0.4-0.8-0.8-1.2-1.2c-0.4-0.4-0.8-0.7-1.2-1c-0.4-0.3-0.8-0.6-1.2-0.8c-0.5-0.3-1-0.5-1.4-0.6c-0.4-0.1-0.8-0.2-1-0.1
				c-0.3,0-0.5,0.1-0.7,0.3c-0.2,0.2-0.2,0.5-0.2,0.8c0,0.4,0.1,0.8,0.3,1.2c0.2,0.4,0.4,0.8,0.7,1.3c0.3,0.5,0.7,0.9,1.2,1.5
				c0.5,0.5,1,1.1,1.6,1.7c0.8,0.8,1.5,1.7,2.1,2.4c0.6,0.8,1.2,1.6,1.6,2.4c0.4,0.8,0.8,1.6,1,2.4c0.2,0.8,0.4,1.7,0.4,2.6
				c0,1.3-0.2,2.2-0.6,2.8c-0.4,0.6-1,1-1.7,1.1c-0.7,0.1-1.6,0-2.5-0.3c-1-0.3-2-0.8-3-1.4c-1.1-0.6-2.1-1.3-3.1-2.1
				c-1-0.8-1.8-1.6-2.5-2.4l0-5.1c0.8,1.2,1.7,2.3,2.6,3.2c0.9,0.9,1.9,1.7,2.8,2.2c0.6,0.3,1.1,0.6,1.5,0.7c0.4,0.1,0.8,0.2,1,0.1
				c0.3,0,0.5-0.2,0.6-0.4c0.1-0.2,0.2-0.5,0.2-0.8c0-0.4-0.1-0.9-0.3-1.4c-0.2-0.5-0.5-1-0.9-1.5c-0.4-0.5-0.8-1.1-1.4-1.6
				c-0.5-0.6-1.1-1.2-1.7-1.8c-1.5-1.6-2.7-3.2-3.4-4.7c-0.8-1.5-1.1-3-1.1-4.5c0-1.2,0.2-2.1,0.6-2.7c0.4-0.6,1-1,1.7-1.1
				c0.7-0.1,1.5-0.1,2.5,0.2S314.3,70.2,315.4,70.8"/>
			<path class="st11" d="M331.2,79.9c1,0.6,1.9,1.2,2.7,1.8c0.8,0.6,1.5,1.2,2.2,1.9l0,4.7c-0.3-0.5-0.7-0.9-1.1-1.3
				c-0.4-0.4-0.8-0.8-1.2-1.2c-0.4-0.4-0.8-0.7-1.2-1c-0.4-0.3-0.8-0.6-1.2-0.8c-0.5-0.3-1-0.5-1.4-0.6c-0.4-0.1-0.8-0.2-1-0.1
				c-0.3,0-0.5,0.1-0.7,0.3c-0.2,0.2-0.2,0.5-0.2,0.8c0,0.4,0.1,0.8,0.3,1.2c0.2,0.4,0.4,0.8,0.7,1.3c0.3,0.5,0.7,0.9,1.2,1.5
				c0.5,0.5,1,1.1,1.6,1.7c0.8,0.8,1.5,1.7,2.1,2.4c0.6,0.8,1.2,1.6,1.6,2.4c0.5,0.8,0.8,1.6,1,2.4c0.2,0.8,0.4,1.7,0.4,2.6
				c0,1.3-0.2,2.2-0.6,2.8c-0.4,0.6-1,1-1.7,1.1c-0.7,0.1-1.5,0-2.5-0.3c-1-0.3-2-0.8-3-1.4c-1.1-0.6-2.1-1.3-3.1-2.1
				c-1-0.8-1.8-1.6-2.5-2.4l0-5.1c0.8,1.2,1.7,2.3,2.6,3.2c0.9,0.9,1.9,1.7,2.8,2.2c0.6,0.3,1,0.6,1.5,0.7c0.4,0.1,0.8,0.2,1,0.1
				c0.3,0,0.5-0.2,0.6-0.4c0.1-0.2,0.2-0.5,0.2-0.8c0-0.4-0.1-0.9-0.3-1.4c-0.2-0.5-0.5-1-0.9-1.5c-0.4-0.5-0.8-1.1-1.4-1.6
				c-0.5-0.6-1.1-1.2-1.7-1.8c-1.5-1.6-2.7-3.2-3.4-4.7c-0.8-1.5-1.1-3-1.1-4.5c0-1.2,0.2-2.1,0.6-2.7c0.4-0.6,1-1,1.7-1.1
				c0.7-0.1,1.5-0.1,2.5,0.2C329.2,78.9,330.2,79.3,331.2,79.9"/>
			<path class="st11" d="M355.8,97.3c1.7,3.1,2.6,6.4,2.6,9.9c0,3.6-0.9,5.9-2.7,7.1c-1.8,1.1-4.2,0.9-7.1-0.8
				c-2.8-1.6-5.1-4-6.9-7.2c-1.8-3.1-2.7-6.4-2.7-9.8c0-3.6,0.9-6,2.7-7.1c1.8-1.2,4.2-0.9,7.2,0.8C351.8,91.8,354,94.2,355.8,97.3
				 M352.3,109.3c0.9-0.8,1.4-2.3,1.4-4.5c0-2.4-0.4-4.4-1.3-6.3c-0.9-1.8-2.1-3.2-3.6-4c-1.6-0.9-2.8-0.9-3.7-0.1
				c-0.9,0.8-1.4,2.3-1.4,4.5c0,2.3,0.4,4.3,1.4,6.1c0.9,1.8,2.1,3.2,3.6,4C350.2,110,351.4,110.1,352.3,109.3"/>
			<path class="st11" d="M379.5,108.2l-0.1,22.7l-4.5-2.6l-8.1-19c-0.5-1.1-0.8-1.9-1-2.5c0,0.8,0.1,2.1,0,3.7l0,12.5l-4.2-2.4
				l0.1-22.7l4.8,2.8l7.8,18.4c0.4,0.8,0.7,1.6,1,2.4c0-0.5,0-1.6,0-3.1l0-12.6L379.5,108.2z"/>
			<polygon class="st11" points="400.3,119.8 400.2,139 404.3,141.3 404.3,145.3 391.8,138 391.8,134.1 395.9,136.5 395.9,122.3 
				391.7,120.9 391.7,116.9 			"/>
			<polygon class="st12" points="406.6,224.8 406.6,230.5 348.4,196.9 348.4,191.2 			"/>
			<polygon class="st12" points="416.5,219.6 416.5,225.4 348.4,186 348.4,180.3 			"/>
			<polygon class="st12" points="427.2,204.1 427.2,209.8 348.5,164.3 348.5,158.6 			"/>
			<polygon class="st12" points="427.3,183.7 427.3,195.1 348.5,149.6 348.5,138.2 			"/>
			<polygon class="st12" points="427.2,214.9 427.2,220.6 348.4,175.2 348.5,169.5 			"/>
		</g>
	</g>
	<path class="st13" d="M189.3,144.8c3.8,4.2,7.6,8.4,11.4,12.5c4,4.4,8.2,9,13.8,11.2c9.3,3.8,20,0.3,29-4.1
		c3.7-1.8,7.3-3.7,10.8-5.8c4-2.4,3.7-2.6,7.5-5.2c2.4-1.6,4.8-3.2,7.3-4.6c2.4-1.3,5.4-2.3,7.2-4.3c1.1-1.3,1.8-2.8,2.5-4.3
		c1.7-3.7,4.2-8.3,3.2-12.5c-0.1-0.5-0.3-1-0.3-1.6c0-0.9,0.4-1.7,0.5-2.6c0-0.9-0.7-2-1.6-1.6c-0.3,0.1-0.6,0.5-0.8,0.8
		c-1,1.2-2.3,2-3.6,2.8c-5.3,3.3-10.1,7.4-14.5,11.8c-6.6,6.6-9.6,9.2-18.3,12.7c-5.7,2.3-4.6,1.5-10.7,2c-6.1,0.5-12.6-1-17.1-5.1
		c-2.3-2.1-4-4.8-5.6-7.5l-7.4-12L189.3,144.8z"/>
	<path class="st14" d="M146.4,353.4c3.8,3.1,9.4,0.3,9.7,0.5c3.9,3.9,9.7,8.3,14,11.6c2.4,1.9,6,4.3,5.4,7.9
		c-1.2,6.4-11.4,4.4-15.3,2.5c-3.8-1.9-7-5.2-10.7-7.5c-2.6-1.6-5.2-2.5-5.6-5.7C143.7,360.8,145.7,353.3,146.4,353.4"/>
	<path class="st15" d="M144,361.5c0.5,3.1,3,4,5.6,5.6c3.7,2.3,7,5.6,10.8,7.6c3.6,1.8,12.5,3.6,15-1c-1.4,6.2-11.4,4.2-15.2,2.3
		c-3.8-1.9-7-5.2-10.7-7.5c-2.6-1.6-5.2-2.5-5.6-5.7C143.9,362.5,143.9,362,144,361.5"/>
	<path class="st14" d="M179.3,341.2c3.8,3.1,10.4-0.3,10.7,0c3.9,3.9,8.2,7.9,12.5,11.3c2.4,1.9,6,4.3,5.4,7.9
		c-1.2,6.4-11.4,4.4-15.3,2.5c-3.8-1.9-7-5.2-10.7-7.5c-2.6-1.6-5.2-2.5-5.6-5.7C176.1,347.7,178.6,341.1,179.3,341.2"/>
	<path class="st15" d="M176.5,348.8c0.5,3.1,3,4,5.6,5.6c3.7,2.3,7,5.6,10.8,7.6c3.6,1.8,12.5,3.6,15-1c-1.4,6.2-11.4,4.2-15.2,2.3
		c-3.8-1.9-7-5.2-10.7-7.5c-2.6-1.6-5.2-2.5-5.6-5.7C176.4,349.8,176.4,349.3,176.5,348.8"/>
	<path class="st16" d="M146.2,213.5c0.2,5.7,2,30.6,2.8,43.8c0.8,13.2,1,29.3,1,29.3s-2.3,9.6-3.7,20.9c-1.5,11.3,0,46.9,0,46.9
		s4.3,3.2,9.7,0c0,0,6.1-28.5,8.9-41.3c2.8-12.8,3.3-20.2,4.8-28.2c1.8-9.6,5.6-54.5,5.6-54.5l1.5,0.1l4.1,50.7
		c0,0-1.6,4.2-2.6,11.5c-1.1,8.3,1.2,49.8,1.2,49.8s4.7,3.1,10.5-0.4c0,0,10.1-55,10.1-63.4c0-5.5-0.9-78.6-0.9-78.6L146.2,213.5z"
		/>
	<path class="st13" d="M159.9,102.8c0,0,0.6,12.5,0.4,13.6c-0.3,1.1-5.7,4.8-7.3,6.1c-1.6,1.3,8.6,11.4,13.6,13.7
		c5,2.3,20.7-3.7,21-11.5c0.3-7.7-2.7-14.2-5.1-14.6C180,109.8,159.9,102.8,159.9,102.8"/>
	<path class="st17" d="M158.5,118.5c0,0,9.1,13.5,21.7,14.8c4-3.9,4.4-17.9-1.2-22.4c0,0,5.1-4.1,8.5-3.3c0,0,5.5,2.8,7.8,10
		c2.3,7.1,4.7,15.7,4.5,28.9c-0.2,13.3,0,53.8,0,53.8s-1.8,8.6-13.2,14.9c-11.4,6.4-19.9,7-27.7,5.2c-6.4-1.5-11.7-3.8-13.9-8.4
		c0.6-9.3,4.7-33.5,3.2-45.2c-1.5-11.7-4-20.4-4.7-29.9c-0.6-9.4,1.2-9.3,6-12.6C155.9,119.8,158.5,118.5,158.5,118.5"/>
	<path class="st13" d="M166.1,223.6c-2-1.2-3.5-2.9-6.5-4.3c-2.6-1.3-4.5-1.8-6.3-3.8c-2-2.2-4.1-10.3-6.1-18
		c-2.3-9.2-2-21.4-1.1-26.6c1.8-10.6,6.6-25.3,8-31.4c1.4-6.1-0.4-8.7-3.1-11.1c-3.2-2.9-7.9-2-10.9,6.4c-3.1,8.4-6.9,23.9-8,36.1
		c-0.5,5.9-0.6,15.4,2.4,27.2c2,8.2,5,14.3,8.9,21.9c1,2.1,1.3,3.9,2.8,8c1.5,4.2,4.3,8.6,7.2,11c2.9,2.4,4.3,2.8,5,2.4
		c0.9-0.5,0.8-1.4-0.4-2.7c-1.2-1.2-3.4-3.1-5-6.4c0,0,2.5,2.8,4.1,4.4c1.6,1.6,3.4,2.8,4.8,3.5c1.7,0.9,4.3-0.4,3.1-1.7
		c-1.2-1.3-2.4-1.9-4.8-4.3c-2.2-2.1-3.3-4.1-3.3-4.1s2.7,2.4,5.3,4c2.6,1.6,4.1,1.7,5,1.7c0.9,0,2.2-1.2,0.5-2.6
		c-1.5-1.2-3.9-2.2-6.4-5c-1.8-2-2.8-3.7-2.2-3.7c0.5,0,1.5,1.3,3.7,2.1c2.1,0.8,4.7,0.4,5-0.8C168.2,224.5,168.1,224.8,166.1,223.6
		"/>
	<path class="st13" d="M188.2,84.2L188.2,84.2c-1.5-9.7-8.5-17-18.5-16.5c-10.6,0.6-18.8,9.7-18.2,20.3c0.3,6.2,3.6,11.5,8.4,14.8
		c0,0,0.9,3.5,1.5,4.2c3.5,4.1,14.2,6.7,17.3,6.3c3.9-0.6,6.1-2.2,8-6.5C190,99.1,189,89,188.2,84.2"/>
	<path class="st18" d="M159.9,102.8L159.9,102.8l0.9-8.5c0,0-6.9-17.9,9.4-14.5c10.8,2.3,13.5,3.3,16.8-4c3.3-7.2-8.3-13.7-22-11.9
		c-13.7,1.8-17.4,13.9-17,19.3C148.3,88.5,149.8,99.3,159.9,102.8"/>
	<path class="st19" d="M131.9,151.4c0,0,8.9,8.9,19.5,6.3c1.5-1,5.1-21.8,5.1-21.8s0-11.5-8.8-11.2
		C138.9,125,131.9,151.4,131.9,151.4"/>
	<path class="st19" d="M199.3,134.2c0,0,4.7-0.2,6.6-2.9c-0.4-4.6-6.3-22.3-18.2-23.6c0,0,5.2,3.4,7.5,9
		C197.2,122,199.3,134.2,199.3,134.2"/>
	<polygon class="st20" points="266.5,151.1 269,145.8 272,147 270.3,152.5 	"/>
	<polygon class="st20" points="275.4,128.3 293.9,81.5 295.4,82.1 279.1,129.7 	"/>
	<polyline class="st21" points="43.8,439.9 61.8,456.3 78.8,440.4 	"/>
	<polygon class="st22" points="65.7,417.8 98.9,463.4 95.9,465.6 61.8,420.7 	"/>
	<path class="st4" d="M96.8,460.6C96.9,460.6,96.9,460.6,96.8,460.6c0,0.1,0,0.1,0,0.1c0,0,0,0,0,0c0,0.1,0,0.1,0,0.2c0,0,0,0,0,0
		c0,0.1,0,0.1,0,0.2c0,0,0,0.1,0,0.1c0,0,0,0,0,0c0,0.1-0.1,0.3-0.2,0.4c0,0,0,0,0,0c0,0,0,0.1-0.1,0.1c0,0.1-0.1,0.1-0.1,0.2
		c0,0,0,0,0,0.1c0,0-0.1,0.1-0.1,0.1c0,0,0,0,0,0c0,0,0,0,0,0c-0.1,0.1-0.1,0.1-0.2,0.1l-0.2,0.1c-0.1,0-0.1,0.1-0.2,0.1
		c0,0,0,0-0.1,0c0,0,0,0,0,0c0,0,0,0-0.1,0c-0.1,0-0.1,0.1-0.2,0.1c0,0,0,0-0.1,0c0,0,0,0-0.1,0c0,0-0.1,0-0.1,0
		c-0.1,0-0.1,0-0.2,0.1c0,0,0,0-0.1,0c-0.1,0-0.2,0-0.3,0.1c-0.2,0-0.4,0-0.6-0.1l1.9,2.7c0.2,0.3,0.5,0.4,1,0.4c0.1,0,0.2,0,0.3,0
		c0,0,0,0,0,0c0.1,0,0.1,0,0.2,0c0,0,0.1,0,0.1,0c0,0,0,0,0,0c0,0,0,0,0,0c0.1,0,0.1-0.1,0.2-0.1c0,0,0,0,0.1,0c0,0,0,0,0,0
		c0,0,0,0,0.1,0c0.1,0,0.1-0.1,0.2-0.1l0.2-0.1c0.1,0,0.1-0.1,0.2-0.2c0,0,0,0,0,0c0,0,0.1-0.1,0.1-0.1c0,0,0,0,0-0.1
		c0.1-0.2,0.2-0.3,0.3-0.5c0.1-0.2,0.2-0.5,0.2-0.7c0-0.4-0.3-0.6-0.5-0.9c-0.2-0.3-0.4-0.6-0.7-0.9C97.5,461.5,97.2,461,96.8,460.6
		C96.8,460.5,96.8,460.6,96.8,460.6"/>
	<polygon class="st22" points="60,421.1 22.6,471.1 19.6,468.9 56.1,418.2 	"/>
	<path class="st4" d="M24.6,468.3C24.6,468.3,24.6,468.3,24.6,468.3c-0.1,0-0.1,0-0.1,0c0,0,0,0,0,0c-0.1,0-0.1,0-0.2,0c0,0,0,0,0,0
		c-0.1,0-0.1,0-0.2,0c0,0-0.1,0-0.1,0c0,0,0,0,0,0c-0.1,0-0.3,0-0.4-0.1c0,0,0,0,0,0c0,0-0.1,0-0.1,0c-0.1,0-0.1,0-0.2-0.1
		c0,0,0,0-0.1,0c-0.1,0-0.1,0-0.2-0.1c0,0,0,0-0.1,0c0,0,0,0,0,0c-0.1,0-0.1-0.1-0.2-0.1l-0.2-0.1c-0.1,0-0.1-0.1-0.2-0.1
		c0,0,0,0-0.1,0c0,0,0,0,0,0c0,0,0,0-0.1,0c-0.1,0-0.1-0.1-0.1-0.1c0,0,0,0,0,0c0,0,0,0,0,0c0,0,0-0.1-0.1-0.1c0,0-0.1-0.1-0.1-0.2
		c0,0,0,0,0-0.1c-0.1-0.1-0.1-0.2-0.1-0.3c-0.1-0.2-0.1-0.4-0.1-0.6l-2,2.6c-0.2,0.3-0.2,0.6-0.1,1.1c0,0.1,0.1,0.2,0.1,0.3
		c0,0,0,0,0,0c0,0,0.1,0.1,0.1,0.2c0,0,0,0,0.1,0.1c0,0,0,0,0,0c0,0,0,0,0,0c0,0,0.1,0.1,0.1,0.1c0,0,0,0,0.1,0c0,0,0,0,0,0
		c0,0,0,0,0.1,0c0,0,0.1,0.1,0.1,0.1l0.2,0.1c0.1,0,0.1,0.1,0.2,0.1c0,0,0,0,0,0c0.1,0,0.1,0.1,0.1,0.1c0,0,0,0,0.1,0
		c0.2,0.1,0.4,0.1,0.6,0.2c0.3,0,0.5,0,0.8,0c0.3-0.1,0.5-0.5,0.7-0.7c0.2-0.3,0.4-0.6,0.7-0.9C24,469.2,24.3,468.8,24.6,468.3
		C24.7,468.3,24.7,468.3,24.6,468.3"/>
	<path class="st23" d="M53.6,422.3c0,0,0.5,1.2,1.5,2c1,0.8,2.2,1,2.2,1l1.3-1.7c0,0,0.6-0.8,0.9-1.2c0.4-0.5,0.8-1,1.2-1.6
		c0.3-0.4,0.5-1,0.3-1.6c0-0.1-0.1-0.3-0.1-0.4c0,0,0,0,0-0.1c0-0.1-0.1-0.1-0.1-0.2c0,0-0.1-0.1-0.1-0.1c0,0,0,0,0-0.1
		c0,0,0,0,0-0.1c0-0.1-0.1-0.1-0.2-0.2c0,0,0,0-0.1-0.1c0,0,0,0,0,0c0,0,0,0-0.1-0.1c-0.1-0.1-0.1-0.1-0.2-0.1l-0.2-0.1
		c-0.1-0.1-0.2-0.1-0.3-0.2c0,0,0,0-0.1,0c-0.1,0-0.1-0.1-0.2-0.1c0,0-0.1,0-0.1,0c-0.3,0-0.5-0.1-0.8-0.1c-0.4,0-0.7,0-1.1,0.2
		c-0.5,0.3-0.8,0.8-1.1,1.2c-0.4,0.5-0.7,1-1.1,1.5l-0.9,1.2C54.1,421.4,53.6,422.3,53.6,422.3"/>
	<path class="st23" d="M65.3,425.1c0,0,1.3-0.1,2.3-0.9c1-0.7,1.6-1.9,1.6-1.9l-1.3-1.7c0,0-0.6-0.8-0.9-1.2
		c-0.4-0.5-0.8-1.1-1.2-1.6c-0.3-0.4-0.8-0.7-1.5-0.8c-0.1,0-0.3,0-0.5,0c0,0,0,0-0.1,0c-0.1,0-0.2,0-0.2,0c0,0-0.1,0-0.1,0
		c0,0,0,0-0.1,0c0,0,0,0-0.1,0c-0.1,0-0.1,0.1-0.2,0.1c0,0,0,0-0.1,0c0,0,0,0-0.1,0c0,0-0.1,0-0.1,0c-0.1,0-0.1,0.1-0.2,0.1
		l-0.2,0.2c-0.1,0.1-0.1,0.1-0.2,0.2c0,0,0,0,0,0.1c-0.1,0.1-0.1,0.1-0.1,0.2c0,0,0,0.1,0,0.1c-0.1,0.3-0.3,0.5-0.3,0.7
		c-0.1,0.4-0.2,0.7-0.1,1.1c0.1,0.6,0.5,1,0.9,1.4c0.4,0.5,0.7,0.9,1.1,1.4c0.3,0.4,0.6,0.8,0.9,1.2
		C64.6,424.3,65.3,425.1,65.3,425.1"/>
	<g class="st24">
		<g>
			<defs>
				<rect id="SVGID_5_" x="57.9" y="449.7" width="7.8" height="7.5"/>
			</defs>
			<clipPath id="SVGID_6_">
				<use xlink:href="#SVGID_5_"  style="overflow:visible;"/>
			</clipPath>
			<g class="st25">
				<g>
					<defs>
						<rect id="SVGID_7_" x="57.9" y="452" width="7.8" height="5.3"/>
					</defs>
					<clipPath id="SVGID_8_">
						<use xlink:href="#SVGID_7_"  style="overflow:visible;"/>
					</clipPath>
					<g class="st26">
						<defs>
							<path id="SVGID_9_" d="M65.7,452l0,3c0,0.6-0.4,1.1-1.1,1.6c-1.5,0.9-4,0.9-5.5,0c-0.8-0.4-1.1-1-1.1-1.6l0-3
								c0,0.6,0.4,1.2,1.1,1.6c1.5,0.9,4,0.9,5.5,0C65.3,453.1,65.7,452.6,65.7,452"/>
						</defs>
						<clipPath id="SVGID_10_">
							<use xlink:href="#SVGID_9_"  style="overflow:visible;"/>
						</clipPath>
						<g class="st27">
							<g>
								<defs>
									<rect id="SVGID_11_" x="57.9" y="452" width="7.8" height="5.3"/>
								</defs>
								<clipPath id="SVGID_12_">
									<use xlink:href="#SVGID_11_"  style="overflow:visible;"/>
								</clipPath>
								<path class="st28" d="M65.7,452l0,3c0,0,0,0,0,0L65.7,452C65.7,452,65.7,452,65.7,452"/>
								<path class="st29" d="M65.7,452l0,3c0,0.1,0,0.1,0,0.2l0-3C65.7,452.2,65.7,452.1,65.7,452"/>
								<path class="st30" d="M65.7,452.3l0,3c0,0.1,0,0.1-0.1,0.2l0-3C65.7,452.4,65.7,452.3,65.7,452.3"/>
								<path class="st31" d="M65.6,452.5l0,3c0,0.1-0.1,0.1-0.1,0.2l0-3C65.6,452.6,65.6,452.5,65.6,452.5"/>
								<path class="st32" d="M65.5,452.7l0,3c0,0.1-0.1,0.2-0.2,0.2l0-3C65.4,452.8,65.5,452.8,65.5,452.7"/>
								<path class="st33" d="M65.4,452.9l0,3c-0.1,0.1-0.2,0.2-0.2,0.3l0-3C65.2,453.1,65.3,453,65.4,452.9"/>
								<path class="st34" d="M65.1,453.2l0,3c-0.1,0.1-0.3,0.3-0.5,0.4l0-3C64.8,453.4,65,453.3,65.1,453.2"/>
								<path class="st35" d="M64.6,453.6l0,3c0,0,0,0,0,0c-0.3,0.2-0.5,0.3-0.8,0.4l0-3C64,453.9,64.3,453.7,64.6,453.6
									C64.6,453.6,64.6,453.6,64.6,453.6"/>
								<path class="st34" d="M63.7,454l0,3c-0.2,0.1-0.5,0.1-0.7,0.2l0-3C63.3,454.1,63.5,454,63.7,454"/>
								<path class="st33" d="M63,454.1l0,3c-0.2,0-0.3,0.1-0.5,0.1l0-3C62.7,454.2,62.8,454.2,63,454.1"/>
								<path class="st32" d="M62.5,454.2l0,3c-0.1,0-0.3,0-0.4,0l0-3C62.2,454.2,62.4,454.2,62.5,454.2"/>
								<path class="st31" d="M62.1,454.2l0,3c-0.1,0-0.3,0-0.4,0l0-3C61.8,454.2,61.9,454.2,62.1,454.2"/>
								<path class="st30" d="M61.7,454.2l0,3c-0.1,0-0.3,0-0.4,0l0-3C61.4,454.2,61.6,454.2,61.7,454.2"/>
								<path class="st29" d="M61.3,454.2l0,3c-0.1,0-0.3,0-0.4,0l0-3C61,454.2,61.2,454.2,61.3,454.2"/>
								<path class="st28" d="M60.9,454.2l0,3c-0.1,0-0.3,0-0.4-0.1l0-3C60.7,454.1,60.8,454.2,60.9,454.2"/>
								<path class="st36" d="M60.5,454.1l0,3c-0.1,0-0.3-0.1-0.4-0.1l0-3C60.3,454,60.4,454.1,60.5,454.1"/>
								<path class="st37" d="M60.1,454l0,3c-0.2,0-0.3-0.1-0.5-0.2l0-3C59.8,453.9,60,454,60.1,454"/>
								<path class="st38" d="M59.7,453.8l0,3c-0.2-0.1-0.4-0.2-0.6-0.3c-0.8-0.4-1.1-1-1.1-1.6l0-3c0,0.6,0.4,1.2,1.1,1.6
									C59.3,453.7,59.5,453.8,59.7,453.8"/>
							</g>
						</g>
					</g>
				</g>
			</g>
			<path class="st39" d="M64.6,450.4c1.5,0.9,1.5,2.3,0,3.2c-1.5,0.9-4,0.9-5.5,0c-1.5-0.9-1.5-2.3,0-3.2
				C60.6,449.5,63.1,449.5,64.6,450.4"/>
		</g>
	</g>
	<path class="st22" d="M64.1,281.7L64,414.4v6.9l0,30.9v0c0,0,0,0.1,0,0.1c0,0,0,0,0,0.1c0,0,0,0,0,0v0c0,0.1,0,0.1-0.1,0.1
		c0,0,0,0,0,0.1c0,0,0,0,0,0c0,0,0,0,0,0c0,0.1-0.1,0.1-0.1,0.1c0,0,0,0,0,0c0,0-0.1,0.1-0.2,0.1c0,0-0.1,0-0.1,0.1c0,0,0,0,0,0
		c-0.1,0.1-0.3,0.1-0.4,0.2c0,0,0,0,0,0c0,0-0.1,0-0.1,0c-0.1,0-0.1,0-0.2,0c0,0,0,0-0.1,0c-0.1,0-0.1,0-0.2,0c0,0,0,0-0.1,0h0
		c-0.1,0-0.2,0-0.2,0h-0.2c-0.1,0-0.2,0-0.2,0c0,0,0,0-0.1,0c0,0,0,0,0,0c0,0,0,0-0.1,0l-0.2,0c0,0,0,0-0.1,0c0,0,0,0-0.1,0
		c0,0-0.1,0-0.1,0c-0.1,0-0.1,0-0.2-0.1c0,0,0,0-0.1,0l0,0c-0.1,0-0.2-0.1-0.3-0.1c-0.4-0.3-0.6-0.6-0.6-0.9l0-30.9v0v-6.8
		l0.1-132.8c0-0.3,0.2-0.6,0.6-0.9c0.8-0.5,2.2-0.5,3.1,0c0.5,0.3,0.7,0.7,0.6,1C64.1,281.8,64.1,281.7,64.1,281.7"/>
	<path class="st40" d="M64,414.4v6.9c0,0,0,0.1,0,0.1c0,0,0,0.1,0,0.1c0,0,0,0,0,0c0,0,0,0,0,0c0,0,0,0.1,0,0.1c0,0,0,0,0,0.1
		c0,0,0,0,0,0c0,0,0,0,0,0c0,0-0.1,0.1-0.1,0.1h0c0,0-0.1,0.1-0.1,0.1c0,0-0.1,0.1-0.1,0.1c0,0,0,0,0,0c-0.1,0.1-0.4,0.2-0.4,0.2
		c0,0,0,0-0.1,0c0,0-0.1,0-0.1,0c-0.1,0-0.1,0-0.2,0.1c0,0,0,0-0.1,0c-0.1,0-0.1,0-0.2,0c0,0,0,0-0.1,0h0c-0.1,0-0.2,0-0.2,0h-0.2
		c-0.1,0-0.2,0-0.2,0c0,0,0,0-0.1,0c0,0,0,0,0,0h-0.1c-0.1,0-0.1,0-0.2,0c0,0,0,0-0.1,0c0,0,0,0-0.1,0c0,0-0.1,0-0.1,0
		c-0.1,0-0.1,0-0.2-0.1c0,0,0,0-0.1,0c0,0,0,0,0,0c-0.1,0-0.2-0.1-0.3-0.1c-0.4-0.2-0.6-0.6-0.6-0.9v0v-6.8c0.1,0.1,0.3,0.3,0.6,0.4
		c0.1,0.1,0.2,0.1,0.3,0.1c0,0,0,0,0,0c0,0,0,0,0.1,0c0.1,0,0.1,0,0.2,0.1c0,0,0.1,0,0.1,0c0,0,0,0,0.1,0s0,0,0.1,0
		c0.1,0,0.1,0,0.2,0h0.1c0,0,0,0,0.1,0c0,0,0,0,0.1,0c0.1,0,0.2,0,0.2,0H62c0.1,0,0.2,0,0.3,0c0,0,0,0,0,0c0,0,0.1,0,0.1,0
		c0.1,0,0.1,0,0.2,0c0,0,0,0,0.1,0c0.1,0,0.1,0,0.2-0.1c0,0,0.1,0,0.1,0c0,0,0,0,0,0c0.2-0.1,0.3-0.1,0.5-0.2c0,0,0,0,0,0
		c0,0,0.1,0,0.1-0.1c0,0,0.1-0.1,0.1-0.1c0,0,0,0,0,0c0,0,0.1-0.1,0.1-0.1C63.9,414.5,63.9,414.5,64,414.4
		C64,414.5,64,414.5,64,414.4C64,414.5,64,414.5,64,414.4"/>
	<polygon class="st22" points="64.6,420.6 75.4,498.5 71.7,499.1 59.8,421.3 	"/>
	<path class="st4" d="M74.9,495.1C74.9,495.1,74.9,495.2,74.9,495.1c0,0.1,0,0.1,0,0.1c0,0,0,0,0,0c0,0.1-0.1,0.1-0.1,0.2
		c0,0,0,0,0,0c0,0-0.1,0.1-0.1,0.1c0,0-0.1,0.1-0.1,0.1c0,0,0,0,0,0c-0.1,0.1-0.2,0.2-0.4,0.2c0,0,0,0,0,0c0,0-0.1,0-0.1,0
		c-0.1,0-0.1,0.1-0.2,0.1c0,0,0,0-0.1,0c-0.1,0-0.1,0-0.2,0.1c0,0,0,0-0.1,0c0,0,0,0,0,0c-0.1,0-0.1,0-0.2,0l-0.2,0
		c-0.1,0-0.1,0-0.2,0c0,0,0,0-0.1,0c0,0,0,0-0.1,0c0,0,0,0-0.1,0c-0.1,0-0.1,0-0.2,0c0,0,0,0-0.1,0c0,0,0,0-0.1,0c0,0-0.1,0-0.1,0
		c-0.1,0-0.1,0-0.2,0c0,0,0,0-0.1,0c-0.1,0-0.2-0.1-0.3-0.1c-0.2-0.1-0.4-0.2-0.5-0.4l0.4,3.3c0,0.3,0.3,0.6,0.7,0.8
		c0.1,0,0.2,0.1,0.3,0.1c0,0,0,0,0,0c0.1,0,0.1,0,0.2,0c0,0,0.1,0,0.1,0c0,0,0,0,0.1,0c0,0,0,0,0.1,0c0.1,0,0.1,0,0.2,0
		c0,0,0,0,0.1,0c0,0,0,0,0,0c0,0,0,0,0.1,0c0.1,0,0.1,0,0.2,0l0.2,0c0.1,0,0.1,0,0.2,0c0,0,0,0,0,0c0.1,0,0.1,0,0.2,0c0,0,0,0,0.1,0
		c0.2-0.1,0.4-0.2,0.5-0.3c0.2-0.2,0.4-0.3,0.5-0.6c0.2-0.3,0.1-0.7,0-1c-0.1-0.4-0.1-0.7-0.2-1.1C75.1,496.2,75,495.6,74.9,495.1
		C75,495.1,74.9,495.1,74.9,495.1"/>
	<path class="st23" d="M60.4,424.9c0,0,0-0.1,0-0.1c0,0,0,0,0-0.1c0,0,0,0,0-0.1c0-0.1,0.1-0.2,0.1-0.2c0,0,0,0,0,0
		c0-0.1,0.1-0.1,0.1-0.2c0-0.1,0.1-0.1,0.1-0.1c0,0,0,0,0,0c0.1-0.1,0.3-0.3,0.4-0.4c0,0,0,0,0.1,0c0,0,0.1,0,0.1-0.1
		c0.1,0,0.1-0.1,0.2-0.1c0,0,0.1,0,0.1,0c0.1,0,0.1-0.1,0.2-0.1c0,0,0,0,0.1,0c0,0,0,0,0,0c0.1,0,0.2,0,0.3-0.1l0.3,0
		c0.1,0,0.2,0,0.3,0c0,0,0.1,0,0.1,0c0,0,0,0,0.1,0c0,0,0.1,0,0.1,0c0.1,0,0.2,0,0.3,0c0,0,0,0,0.1,0c0,0,0,0,0.1,0c0,0,0.1,0,0.1,0
		c0.1,0,0.2,0,0.2,0.1c0,0,0.1,0,0.1,0c0.1,0.1,0.3,0.1,0.4,0.2c0.3,0.2,0.5,0.4,0.7,0.6l-0.7-5.2c-0.1-0.5-0.4-1-0.9-1.4
		c-0.1-0.1-0.2-0.1-0.4-0.2c0,0,0,0-0.1,0c-0.1,0-0.1-0.1-0.2-0.1c0,0-0.1,0-0.1,0c0,0,0,0-0.1,0c0,0,0,0-0.1,0c-0.1,0-0.2,0-0.2,0
		c0,0-0.1,0-0.1,0c0,0,0,0-0.1,0c0,0-0.1,0-0.1,0c-0.1,0-0.2,0-0.2,0l-0.2,0c-0.1,0-0.2,0-0.3,0.1c0,0,0,0-0.1,0
		c-0.1,0-0.1,0-0.2,0.1c0,0-0.1,0-0.1,0c-0.2,0.2-0.5,0.3-0.7,0.5c-0.3,0.3-0.5,0.5-0.6,0.9c-0.2,0.5,0,1.1,0.1,1.7
		c0.1,0.6,0.2,1.2,0.3,1.8c0.1,0.9,0.3,1.9,0.4,2.8C60.4,425,60.4,425,60.4,424.9"/>
	<path class="st23" d="M91.4,274c0-0.1,0-0.2,0-0.4c0-0.1,0-0.1,0-0.2l0-0.1c0,0,0-0.1,0-0.1c0-0.1,0-0.2,0-0.4c0-0.1,0-0.2-0.1-0.4
		c0,0,0,0,0,0c0,0,0,0,0,0c0-0.1,0-0.2-0.1-0.3c0-0.1,0-0.3-0.1-0.4c0,0,0-0.1,0-0.1c0,0,0-0.1,0-0.1c0-0.1,0-0.1,0-0.2
		c0-0.1-0.1-0.3-0.1-0.4c0-0.1-0.1-0.2-0.1-0.3c0,0,0,0,0-0.1c0,0,0,0,0,0c0-0.1-0.1-0.3-0.1-0.4c0-0.1-0.1-0.2-0.1-0.4l0-0.1
		c0,0,0,0,0-0.1c0-0.1-0.1-0.2-0.1-0.2c0-0.1-0.1-0.2-0.1-0.4c0-0.1-0.1-0.2-0.1-0.3c0,0,0,0,0,0c0,0,0,0,0,0
		c-0.1-0.1-0.1-0.2-0.2-0.4c-0.1-0.1-0.1-0.3-0.2-0.4c0,0,0,0,0-0.1c0,0,0-0.1,0-0.1c-0.1-0.1-0.1-0.2-0.2-0.3
		c-0.1-0.1-0.1-0.3-0.2-0.4c0-0.1-0.1-0.1-0.1-0.2c0,0,0,0,0-0.1c-0.1-0.1-0.1-0.2-0.2-0.3c-0.1-0.2-0.2-0.3-0.3-0.5
		c0,0,0-0.1,0-0.1c-0.1-0.2-0.3-0.4-0.5-0.7c0,0,0,0,0,0c-0.1-0.1-0.2-0.3-0.3-0.4c-0.1-0.1-0.2-0.2-0.3-0.3c0,0,0,0,0,0
		c0,0,0,0,0,0c-0.1-0.1-0.2-0.2-0.3-0.3c-0.1-0.1-0.2-0.2-0.3-0.3c0,0,0,0,0,0c0,0,0,0,0-0.1c-0.1-0.1-0.1-0.1-0.2-0.2
		c-0.1-0.1-0.2-0.2-0.3-0.3c0,0-0.1-0.1-0.1-0.1c0,0,0,0-0.1-0.1c-0.1,0-0.1-0.1-0.2-0.1c-0.1-0.1-0.2-0.2-0.3-0.3
		c0,0-0.1-0.1-0.1-0.1c0,0,0,0-0.1-0.1c0,0-0.1-0.1-0.1-0.1c-0.1-0.1-0.2-0.2-0.3-0.2c-0.1-0.1-0.2-0.1-0.2-0.2c0,0,0,0,0,0
		c0,0,0,0,0,0c-0.1-0.1-0.2-0.1-0.3-0.2c-0.1-0.1-0.2-0.1-0.3-0.2c0,0,0,0-0.1,0c-0.1,0-0.2-0.1-0.2-0.1c-0.1-0.1-0.2-0.1-0.3-0.2
		c-0.1,0-0.1-0.1-0.2-0.1c0,0,0,0,0,0c0,0,0,0-0.1,0c-0.1,0-0.2-0.1-0.3-0.1c-0.1,0-0.2-0.1-0.3-0.1c0,0,0,0-0.1,0c0,0,0,0,0,0
		c-0.1,0-0.1,0-0.2-0.1c-0.1,0-0.2-0.1-0.3-0.1c0,0-0.1,0-0.1,0c0,0,0,0-0.1,0c0,0-0.1,0-0.1,0c-0.1,0-0.2,0-0.3-0.1
		c-0.1,0-0.1,0-0.2,0c0,0,0,0-0.1,0c0,0,0,0-0.1,0c-0.1,0-0.2,0-0.3,0c0,0-0.1,0-0.1,0c0,0-0.1,0-0.1,0c0,0-0.1,0-0.1,0
		c-0.1,0-0.3,0-0.4,0.1c0,0,0,0,0,0c0,0-0.1,0-0.1,0c-0.1,0-0.3,0.1-0.4,0.1c0,0,0,0,0,0c-0.2,0.1-0.4,0.2-0.6,0.3c0,0,0,0,0,0
		l-6,3.5c0.2-0.1,0.4-0.2,0.6-0.3c0.1-0.1,0.3-0.1,0.4-0.1c0,0,0.1,0,0.1,0c0.2,0,0.4-0.1,0.5-0.1c0,0,0.1,0,0.1,0
		c0.2,0,0.4,0,0.6,0c0,0,0,0,0.1,0c0.2,0,0.4,0.1,0.6,0.1c0,0,0,0,0.1,0c0.2,0,0.4,0.1,0.6,0.2c0,0,0,0,0,0c0.2,0.1,0.5,0.2,0.7,0.3
		c0,0,0,0,0,0c0.2,0.1,0.5,0.2,0.7,0.4c0.2,0.1,0.5,0.3,0.7,0.5c0,0,0,0,0,0c0.2,0.2,0.4,0.3,0.7,0.5c0,0,0,0,0.1,0.1
		c0.2,0.2,0.4,0.4,0.6,0.5c0,0,0,0,0.1,0.1c0.2,0.2,0.4,0.4,0.6,0.6c0,0,0,0,0.1,0.1c0.2,0.2,0.4,0.5,0.6,0.7c0,0,0,0,0,0
		c0.2,0.2,0.4,0.5,0.6,0.8l0,0c0.2,0.2,0.3,0.5,0.5,0.7c0.1,0.2,0.2,0.3,0.3,0.5c0.1,0.1,0.2,0.3,0.2,0.4c0,0.1,0.1,0.1,0.1,0.2
		c0.1,0.2,0.3,0.5,0.4,0.7c0,0,0,0,0,0.1c0.1,0.3,0.3,0.6,0.4,0.8l0,0c0.1,0.3,0.2,0.6,0.3,0.8c0,0,0,0,0,0.1
		c0.1,0.3,0.2,0.6,0.3,0.9c0,0,0,0,0,0.1c0.1,0.3,0.2,0.6,0.2,0.8c0,0,0,0.1,0,0.1c0.1,0.3,0.1,0.6,0.2,0.9c0,0,0,0,0,0
		c0,0.3,0.1,0.6,0.1,0.9c0,0,0,0,0,0.1c0,0.3,0,0.6,0,0.8s0,0.5,0,0.8c0,0,0,0,0,0.1c0,0.2-0.1,0.5-0.1,0.7c0,0,0,0.1,0,0.1
		c0,0.2-0.1,0.4-0.2,0.6c0,0,0,0.1,0,0.1c-0.1,0.2-0.1,0.4-0.2,0.5c0,0,0,0,0,0.1c-0.1,0.2-0.2,0.4-0.3,0.5c0,0,0,0,0,0.1
		c-0.1,0.1-0.2,0.3-0.3,0.4c0,0-0.1,0.1-0.1,0.1c-0.1,0.1-0.2,0.2-0.3,0.3c0,0-0.1,0.1-0.1,0.1c-0.1,0.1-0.3,0.2-0.4,0.3l6-3.5
		c0.1-0.1,0.3-0.2,0.4-0.3c0,0,0.1-0.1,0.1-0.1c0.1-0.1,0.2-0.2,0.3-0.3c0,0,0.1-0.1,0.1-0.1c0.1-0.1,0.2-0.2,0.3-0.4c0,0,0,0,0-0.1
		c0,0,0,0,0,0c0.1-0.2,0.2-0.3,0.3-0.5c0,0,0,0,0,0c0,0,0,0,0-0.1c0.1-0.1,0.1-0.2,0.1-0.3c0-0.1,0-0.1,0.1-0.2c0,0,0-0.1,0-0.1
		c0,0,0-0.1,0-0.1c0-0.1,0.1-0.2,0.1-0.4c0,0,0-0.1,0-0.1c0,0,0-0.1,0-0.1c0,0,0-0.1,0-0.1c0-0.1,0-0.2,0.1-0.3c0-0.1,0-0.1,0-0.2
		c0,0,0,0,0-0.1c0,0,0-0.1,0-0.1c0-0.1,0-0.2,0-0.3c0-0.1,0-0.2,0-0.4v0C91.4,274.2,91.4,274.1,91.4,274"/>
	<path class="st41" d="M78.1,265.1c4,2.3,7.3,8,7.3,12.6c0,4.6-3.3,6.5-7.3,4.2c-4-2.3-7.3-8-7.3-12.6
		C70.8,264.7,74.1,262.8,78.1,265.1"/>
	<path class="st23" d="M82.3,277.3c0-0.1,0-0.2,0-0.3c0,0,0-0.1,0-0.1c0,0,0,0,0-0.1c0,0,0-0.1,0-0.1c0-0.1,0-0.2,0-0.3
		c0-0.1,0-0.2,0-0.3c0,0,0,0,0,0c0,0,0,0,0,0c0-0.1,0-0.2,0-0.3c0-0.1,0-0.2-0.1-0.3c0,0,0-0.1,0-0.1c0,0,0,0,0-0.1c0,0,0-0.1,0-0.1
		c0-0.1-0.1-0.2-0.1-0.3c0-0.1,0-0.1-0.1-0.2l0,0c0,0,0,0,0,0c0-0.1-0.1-0.2-0.1-0.3c0-0.1-0.1-0.2-0.1-0.3c0,0,0,0,0-0.1
		c0,0,0,0,0,0c0-0.1,0-0.1-0.1-0.2c0-0.1-0.1-0.2-0.1-0.3c0-0.1-0.1-0.1-0.1-0.2c0,0,0,0,0,0c0,0,0,0,0,0c0-0.1-0.1-0.2-0.1-0.3
		c0-0.1-0.1-0.2-0.1-0.3c0,0,0,0,0,0c0,0,0,0,0-0.1c0-0.1-0.1-0.2-0.1-0.2c-0.1-0.1-0.1-0.2-0.2-0.3c0,0-0.1-0.1-0.1-0.1
		c0,0,0,0,0-0.1c-0.1-0.1-0.1-0.2-0.2-0.2c-0.1-0.1-0.1-0.2-0.2-0.4c0,0,0,0,0-0.1c-0.1-0.2-0.2-0.3-0.4-0.5c0,0,0,0,0,0
		c0,0,0,0,0,0c-0.1-0.1-0.2-0.2-0.3-0.3c-0.1-0.1-0.1-0.2-0.2-0.3c0,0,0,0,0,0c0,0,0,0,0,0c-0.1-0.1-0.1-0.2-0.2-0.3
		c-0.1-0.1-0.1-0.2-0.2-0.2c0,0,0,0,0,0c0,0,0,0,0,0c-0.1-0.1-0.1-0.1-0.2-0.2c-0.1-0.1-0.2-0.2-0.2-0.2c0,0-0.1,0-0.1-0.1
		c0,0,0,0-0.1-0.1c0,0-0.1-0.1-0.1-0.1c-0.1-0.1-0.2-0.1-0.3-0.2c0,0-0.1-0.1-0.1-0.1c0,0,0,0-0.1,0c0,0-0.1,0-0.1-0.1
		c-0.1-0.1-0.2-0.1-0.3-0.2c-0.1,0-0.1-0.1-0.2-0.1c0,0,0,0,0,0c0,0,0,0,0,0c-0.1-0.1-0.2-0.1-0.2-0.2c-0.1-0.1-0.2-0.1-0.2-0.1
		c0,0,0,0-0.1,0c-0.1,0-0.1-0.1-0.2-0.1c-0.1,0-0.2-0.1-0.2-0.1c-0.1,0-0.1,0-0.2-0.1c0,0,0,0,0,0c0,0,0,0,0,0
		c-0.1,0-0.2-0.1-0.2-0.1c-0.1,0-0.2-0.1-0.2-0.1c0,0,0,0,0,0c0,0,0,0,0,0c-0.1,0-0.1,0-0.2-0.1c-0.1,0-0.2,0-0.2-0.1
		c0,0-0.1,0-0.1,0c0,0,0,0,0,0c0,0,0,0-0.1,0c-0.1,0-0.2,0-0.2,0c-0.1,0-0.1,0-0.2,0c0,0,0,0-0.1,0c0,0,0,0,0,0c-0.1,0-0.2,0-0.3,0
		c0,0-0.1,0-0.1,0c0,0-0.1,0-0.1,0c0,0-0.1,0-0.1,0c-0.1,0-0.2,0-0.3,0c0,0,0,0,0,0c0,0,0,0-0.1,0c-0.1,0-0.2,0.1-0.3,0.1
		c0,0,0,0,0,0c-0.2,0.1-0.3,0.1-0.4,0.2l-20.9,12.1c0.1-0.1,0.3-0.1,0.4-0.2c0.1,0,0.2-0.1,0.3-0.1c0,0,0,0,0.1,0
		c0.1,0,0.3,0,0.4-0.1c0,0,0.1,0,0.1,0c0.1,0,0.3,0,0.4,0c0,0,0,0,0.1,0c0.2,0,0.3,0,0.5,0.1c0,0,0,0,0,0c0.2,0,0.3,0.1,0.5,0.1
		c0,0,0,0,0,0c0.2,0.1,0.4,0.1,0.5,0.2c0,0,0,0,0,0c0.2,0.1,0.4,0.2,0.6,0.3c0.2,0.1,0.4,0.2,0.6,0.4c0,0,0,0,0,0
		c0.2,0.1,0.3,0.3,0.5,0.4c0,0,0,0,0.1,0c0.2,0.1,0.3,0.3,0.5,0.4c0,0,0,0,0.1,0.1c0.2,0.2,0.3,0.3,0.5,0.5c0,0,0,0,0,0
		c0.2,0.2,0.3,0.4,0.5,0.5c0,0,0,0,0,0c0.2,0.2,0.3,0.4,0.5,0.6c0,0,0,0,0,0c0.1,0.2,0.3,0.4,0.4,0.6c0.1,0.1,0.2,0.2,0.2,0.4
		c0.1,0.1,0.1,0.2,0.2,0.3c0,0,0.1,0.1,0.1,0.1c0.1,0.2,0.2,0.3,0.3,0.5c0,0,0,0,0,0.1c0.1,0.2,0.2,0.4,0.3,0.7c0,0,0,0,0,0
		c0.1,0.2,0.2,0.4,0.3,0.7c0,0,0,0,0,0c0.1,0.2,0.2,0.5,0.2,0.7c0,0,0,0,0,0c0.1,0.2,0.1,0.4,0.2,0.7c0,0,0,0,0,0.1
		c0.1,0.2,0.1,0.4,0.1,0.7l0,0c0,0.2,0.1,0.4,0.1,0.7c0,0,0,0,0,0.1c0,0.2,0,0.4,0,0.7c0,0.2,0,0.4,0,0.6c0,0,0,0,0,0.1
		c0,0.2,0,0.4-0.1,0.5c0,0,0,0,0,0.1c0,0.2-0.1,0.3-0.1,0.5c0,0,0,0.1,0,0.1c0,0.1-0.1,0.3-0.2,0.4c0,0,0,0,0,0
		c-0.1,0.1-0.1,0.3-0.2,0.4c0,0,0,0,0,0.1c-0.1,0.1-0.1,0.2-0.2,0.3c0,0-0.1,0.1-0.1,0.1c-0.1,0.1-0.1,0.1-0.2,0.2
		c0,0-0.1,0.1-0.1,0.1c-0.1,0.1-0.2,0.2-0.3,0.2l20.9-12.1c0.1-0.1,0.2-0.1,0.3-0.2c0,0,0.1-0.1,0.1-0.1c0.1-0.1,0.1-0.1,0.2-0.2
		c0,0,0.1-0.1,0.1-0.1c0.1-0.1,0.2-0.2,0.2-0.3c0,0,0,0,0-0.1c0,0,0,0,0,0c0.1-0.1,0.1-0.3,0.2-0.4c0,0,0,0,0,0c0,0,0,0,0,0
		c0-0.1,0.1-0.2,0.1-0.3c0,0,0-0.1,0-0.1c0,0,0-0.1,0-0.1c0,0,0,0,0-0.1c0-0.1,0.1-0.2,0.1-0.3c0,0,0-0.1,0-0.1c0,0,0,0,0-0.1
		c0,0,0-0.1,0-0.1c0-0.1,0-0.2,0-0.3c0-0.1,0-0.1,0-0.2c0,0,0,0,0-0.1c0,0,0,0,0-0.1c0-0.1,0-0.2,0-0.3c0-0.1,0-0.2,0-0.3
		c0,0,0,0,0,0C82.3,277.5,82.3,277.4,82.3,277.3"/>
	<path class="st41" d="M55.7,279.9c3.1,1.8,5.7,6.2,5.7,9.8c0,3.6-2.6,5.1-5.7,3.2c-3.1-1.8-5.7-6.2-5.7-9.8
		C50,279.5,52.6,278.1,55.7,279.9"/>
	<path class="st40" d="M84.2,277.3C84.2,277.3,84.2,277.3,84.2,277.3c0,0.1,0,0.1-0.1,0.1c0,0,0,0,0,0c0,0-0.1,0.1-0.1,0.1
		c0,0-0.1,0-0.1,0.1c0,0-0.1,0-0.1,0.1l-7.2,4.2l-0.1,27.7l7.2-4.2c0,0,0,0,0,0c0,0,0,0,0.1-0.1c0,0,0.1,0,0.1-0.1c0,0,0,0,0,0
		c0,0,0.1-0.1,0.1-0.1c0,0,0,0,0,0c0,0,0,0,0,0c0,0,0,0,0,0c0,0,0-0.1,0-0.1c0,0,0,0,0,0c0,0,0,0,0,0c0,0,0,0,0,0c0,0,0-0.1,0-0.1v0
		l0.1-27.7C84.3,277.2,84.3,277.3,84.2,277.3"/>
	<path class="st41" d="M76.4,282c0,0-0.1,0-0.1,0c0,0-0.1,0-0.1,0c-0.1,0-0.1,0-0.2,0c0,0,0,0,0,0c-0.1,0-0.2,0-0.2,0c0,0,0,0,0,0
		c-0.1,0-0.2,0-0.2,0c0,0,0,0,0,0c-0.1,0-0.1,0-0.2,0c0,0,0,0,0,0c-0.1,0-0.1,0-0.2-0.1c0,0,0,0,0,0c-0.1,0-0.1-0.1-0.2-0.1
		l-31.9-18.4c-0.1,0-0.1-0.1-0.2-0.1c-0.2-0.1-0.2-0.3-0.2-0.4l-0.1,27.7c0,0.2,0.1,0.4,0.4,0.6l31.9,18.4c0.1,0,0.1,0.1,0.2,0.1
		c0,0,0,0,0,0c0,0,0,0,0,0c0,0,0.1,0,0.1,0c0,0,0,0,0.1,0c0,0,0,0,0,0c0,0,0,0,0,0c0,0,0.1,0,0.1,0c0,0,0,0,0.1,0c0,0,0,0,0,0
		c0,0,0,0,0.1,0c0,0,0.1,0,0.1,0c0,0,0,0,0,0h0h0.1c0.1,0,0.1,0,0.2,0c0,0,0,0,0,0c0,0,0,0,0,0c0,0,0.1,0,0.1,0c0,0,0,0,0,0
		c0,0,0.1,0,0.1,0c0,0,0,0,0.1,0c0,0,0,0,0,0c0.1,0,0.2-0.1,0.3-0.1l0.1-27.7C76.6,282,76.5,282,76.4,282"/>
	<path class="st4" d="M83.9,276.6c0.5,0.3,0.5,0.8,0,1.1l-7.2,4.2c-0.5,0.3-1.4,0.3-1.9,0l-31.9-18.4c-0.5-0.3-0.5-0.8,0-1.1
		l7.2-4.2c0.5-0.3,1.4-0.3,1.9,0L83.9,276.6z"/>
	<path class="st42" d="M58.2,297.7C58.2,297.7,58.2,297.7,58.2,297.7C58.2,297.7,58.2,297.7,58.2,297.7
		C58.2,297.7,58.2,297.7,58.2,297.7C58.2,297.7,58.2,297.7,58.2,297.7c0-0.1,0-0.1,0-0.1c0,0,0,0,0,0c0,0,0,0,0,0c0,0,0,0,0,0
		c0,0,0,0,0,0h0l0,0c0,0,0,0,0,0l0,0l0,0c0,0,0,0,0,0c0,0,0,0,0,0c0,0,0,0,0,0c0,0,0,0,0,0c0,0,0,0,0,0c0,0,0,0,0,0l0,0c0,0,0,0,0,0
		c0,0,0,0,0,0c0,0,0,0,0,0c0,0,0,0,0,0c0,0,0,0,0,0c0,0,0,0,0,0c0,0,0,0,0,0c0,0,0,0,0,0c0,0,0,0,0,0c0,0,0,0,0,0c0,0,0,0,0,0
		c0,0,0,0,0,0c0,0,0,0,0,0c0,0,0,0,0,0c0,0,0,0,0,0c0,0,0,0,0,0c0,0,0,0,0,0c0,0,0,0,0,0l-4-2.3c0,0,0,0,0,0c0,0,0,0,0,0
		c0,0,0,0,0,0c0,0,0,0,0,0c0,0,0,0,0,0c0,0,0,0,0,0c0,0,0,0,0,0c0,0,0,0,0,0l0,0c0,0,0,0,0,0h0c0,0,0,0,0,0h0c0,0,0,0,0,0
		c0,0,0,0,0,0c0,0,0,0,0,0c0,0,0,0,0,0l-0.4,0.2c0,0,0.1,0,0.1,0c0,0,0.1,0,0.2,0.1l4,2.3c0.1,0,0.1,0.1,0.2,0.1
		c0,0.1,0.1,0.1,0.1,0.2l0,0c0,0.1,0.1,0.1,0.1,0.2v0c0,0.1,0,0.1,0,0.2l0,0.6c0,0.1,0,0.1,0,0.2l0,0c0,0,0,0.1-0.1,0.1l0.4-0.2
		c0,0,0.1,0,0.1-0.1c0,0,0,0,0,0c0,0,0,0,0,0c0,0,0,0,0,0c0,0,0,0,0,0c0,0,0,0,0,0c0,0,0,0,0,0c0,0,0,0,0,0c0,0,0,0,0,0c0,0,0,0,0,0
		c0,0,0,0,0,0c0,0,0,0,0,0v0L58.2,297.7C58.2,297.8,58.2,297.8,58.2,297.7"/>
	<path class="st43" d="M57.5,297.3c0.2,0.1,0.4,0.4,0.4,0.7l0,0.6c0,0.3-0.2,0.4-0.4,0.2l-4-2.3c-0.2-0.1-0.4-0.4-0.4-0.7l0-0.6
		c0-0.3,0.2-0.4,0.4-0.2L57.5,297.3z"/>
	<path class="st44" d="M66.2,271C66.2,271,66.2,271,66.2,271c0,0-0.1,0.1-0.1,0.1l-0.7,0.4c-0.1,0.1-0.2,0.1-0.3,0.1h0
		c-0.1,0-0.2,0-0.3-0.1l-4.2-2.4c-0.1-0.1-0.1-0.1-0.1-0.2l0,0.4c0,0.1,0,0.1,0.1,0.2l4.1,2.4c0,0,0,0,0.1,0c0,0,0,0,0.1,0
		c0,0,0,0,0.1,0c0,0,0,0,0,0c0,0,0,0,0,0c0,0,0,0,0,0h0h0h0c0,0,0,0,0.1,0c0,0,0,0,0.1,0c0,0,0.1,0,0.1,0c0,0,0.1,0,0.1,0l0.7-0.4
		l0,0c0,0,0,0,0.1,0c0,0,0,0,0,0c0,0,0,0,0,0c0,0,0,0,0,0c0,0,0,0,0,0c0,0,0,0,0,0c0,0,0,0,0,0c0,0,0,0,0,0v0l0-0.4
		C66.2,270.9,66.2,270.9,66.2,271"/>
	<path class="st45" d="M66.1,270.7c0.2,0.1,0.2,0.3,0,0.4l-0.7,0.4c-0.2,0.1-0.5,0.1-0.7,0l-4.2-2.4c-0.2-0.1-0.2-0.3,0-0.4l0.7-0.4
		c0.2-0.1,0.5-0.1,0.7,0L66.1,270.7z"/>
	<path class="st42" d="M81.2,294L81.2,294l-0.3-0.2c0,0,0,0,0,0c0,0,0,0,0,0c0,0,0,0,0,0c0,0,0,0,0,0c0,0,0,0,0,0c0,0,0,0,0,0
		c0,0,0,0,0,0h0c0,0,0,0,0,0c0,0,0,0,0,0c0,0,0,0,0,0c0,0,0,0-0.1,0l-0.5,0.3c0,0-0.1,0.1-0.1,0.1c0,0,0,0,0,0c0,0,0,0,0,0
		c0,0,0,0,0,0c0,0,0,0,0,0c0,0,0,0,0,0c0,0,0,0,0,0c0,0,0,0,0,0l0,0l0,0c0,0,0,0,0,0c0,0,0,0,0,0c0,0,0,0,0,0c0,0,0,0,0,0
		c0,0,0,0,0,0c0,0,0,0,0,0c0,0,0,0,0,0c0,0,0,0,0,0c0,0,0,0,0,0c0,0,0,0,0,0.1c0,0,0,0.1,0,0.1l0,4.6c0,0.1,0,0.1,0,0.2
		c0,0,0,0.1,0.1,0.1l0.4,0.2c-0.1,0-0.1-0.1-0.1-0.3l0-4.6c0-0.1,0-0.1,0-0.2c0,0,0,0,0,0c0-0.1,0-0.1,0.1-0.2v0
		c0-0.1,0.1-0.1,0.1-0.2c0,0,0,0,0,0c0-0.1,0.1-0.1,0.2-0.1l0.5-0.3c0.1,0,0.1,0,0.2-0.1h0C81.1,294,81.1,294,81.2,294
		C81.2,294,81.2,294,81.2,294"/>
	<path class="st43" d="M80.9,294c0.2-0.1,0.4,0,0.4,0.2l0,4.6c0,0.3-0.2,0.6-0.4,0.7l-0.5,0.3c-0.2,0.1-0.4,0-0.4-0.2l0-4.6
		c0-0.3,0.2-0.6,0.4-0.7L80.9,294z"/>
	<path class="st42" d="M81.2,285.2L81.2,285.2l-0.3-0.2c0,0,0,0,0,0c0,0,0,0,0,0c0,0,0,0,0,0c0,0,0,0,0,0c0,0,0,0,0,0c0,0,0,0,0,0
		c0,0,0,0,0,0h0c0,0,0,0,0,0c0,0,0,0,0,0c0,0,0,0,0,0c0,0,0,0-0.1,0l-0.5,0.3c0,0-0.1,0.1-0.1,0.1c0,0,0,0,0,0c0,0,0,0,0,0
		c0,0,0,0,0,0c0,0,0,0,0,0c0,0,0,0,0,0c0,0,0,0,0,0c0,0,0,0,0,0c0,0,0,0,0,0l0,0c0,0,0,0,0,0c0,0,0,0,0,0c0,0,0,0,0,0c0,0,0,0,0,0
		c0,0,0,0,0,0c0,0,0,0,0,0c0,0,0,0,0,0c0,0,0,0,0,0c0,0,0,0,0,0c0,0,0,0,0,0.1c0,0,0,0.1,0,0.1l0,4.6c0,0.1,0,0.1,0,0.2
		c0,0,0,0.1,0.1,0.1l0.4,0.2c-0.1,0-0.1-0.1-0.1-0.3l0-4.6c0-0.1,0-0.1,0-0.2c0,0,0,0,0,0c0-0.1,0-0.1,0.1-0.2v0
		c0-0.1,0.1-0.1,0.1-0.2c0,0,0,0,0,0c0-0.1,0.1-0.1,0.2-0.1l0.5-0.3c0.1,0,0.1,0,0.2-0.1h0C81.1,285.2,81.1,285.2,81.2,285.2
		C81.2,285.2,81.2,285.2,81.2,285.2"/>
	<path class="st43" d="M80.9,285.2c0.2-0.1,0.4,0,0.4,0.2l0,4.6c0,0.3-0.2,0.6-0.4,0.7l-0.5,0.3c-0.2,0.1-0.4,0-0.4-0.2l0-4.6
		c0-0.3,0.2-0.6,0.4-0.7L80.9,285.2z"/>
	<polygon class="st46" points="44.3,288.5 44.4,267.4 71.4,283 71.4,304.1 	"/>
	<path class="st42" d="M75.2,288.5C75.2,288.4,75.2,288.4,75.2,288.5C75.2,288.4,75.2,288.4,75.2,288.5c0-0.1,0-0.1,0-0.1
		c0,0,0,0,0-0.1c0,0,0,0,0-0.1c0,0,0,0,0-0.1c0,0,0,0,0-0.1c0,0,0,0,0-0.1l0,0v0c0,0,0,0,0,0c0,0,0,0,0-0.1c0,0,0,0,0-0.1
		c0,0,0,0,0,0c0,0,0,0,0,0c0,0,0,0,0,0c0,0,0,0,0,0c0,0,0,0,0-0.1c0,0,0,0,0-0.1c0,0,0,0,0-0.1c0,0,0,0,0,0c0,0,0,0,0,0
		c0,0-0.1-0.1-0.1-0.1c0,0,0-0.1-0.1-0.1c0,0,0,0,0-0.1c0,0,0,0,0,0c0,0,0,0,0,0c0,0,0,0,0,0c0,0,0,0,0,0c0,0,0,0,0,0c0,0,0,0,0,0
		c0,0,0,0,0,0c0,0,0,0,0,0c0,0,0,0,0,0c0,0,0,0,0,0c0,0,0,0,0,0c0,0,0,0,0,0c0,0,0,0,0,0c0,0,0,0,0,0c0,0,0,0,0,0c0,0,0,0,0,0
		c0,0,0,0,0,0c0,0,0,0,0,0l0,0c0,0,0,0,0,0s0,0,0,0c0,0,0,0,0,0c0,0,0,0,0,0c0,0,0,0,0,0c0,0,0,0,0,0h0c0,0,0,0,0,0c0,0,0,0,0,0
		c0,0,0,0-0.1,0c0,0,0,0-0.1,0c0,0,0,0-0.1,0c0,0-0.1,0-0.1,0l-0.4,0.2c0.1-0.1,0.2-0.1,0.3-0.1h0c0.1,0,0.3,0.1,0.4,0.1
		c0.1,0.1,0.3,0.2,0.4,0.3l0,0c0.1,0.1,0.2,0.3,0.3,0.4c0,0,0,0,0,0c0.1,0.2,0.2,0.3,0.2,0.5c0,0,0,0,0,0c0.1,0.2,0.1,0.3,0.1,0.5
		c0,0.2,0,0.3-0.1,0.4c-0.1,0.1-0.1,0.2-0.2,0.2l0.4-0.2c0.1,0,0.1-0.1,0.2-0.2c0,0,0,0,0-0.1c0,0,0,0,0,0c0,0,0,0,0-0.1
		c0,0,0,0,0-0.1c0,0,0,0,0-0.1c0,0,0,0,0,0c0,0,0,0,0,0c0,0,0,0,0,0C75.2,288.6,75.2,288.6,75.2,288.5
		C75.2,288.5,75.2,288.5,75.2,288.5L75.2,288.5C75.2,288.5,75.2,288.5,75.2,288.5"/>
	<path class="st43" d="M73.8,287c0.6,0.3,1,1.1,1,1.7c0,0.6-0.5,0.9-1,0.6c-0.6-0.3-1-1.1-1-1.7C72.8,286.9,73.3,286.7,73.8,287"/>
	<path class="st42" d="M75.2,297.4C75.2,297.4,75.2,297.4,75.2,297.4C75.2,297.3,75.2,297.3,75.2,297.4c0-0.1,0-0.1,0-0.1
		c0,0,0,0,0-0.1c0,0,0,0,0-0.1c0,0,0,0,0-0.1c0,0,0,0,0-0.1c0,0,0,0,0-0.1c0,0,0,0,0,0v0c0,0,0,0,0,0c0,0,0,0,0-0.1c0,0,0,0,0-0.1
		c0,0,0,0,0,0c0,0,0,0,0,0c0,0,0,0,0,0c0,0,0,0,0,0c0,0,0,0,0-0.1c0,0,0,0,0-0.1c0,0,0,0,0-0.1c0,0,0,0,0,0c0,0,0,0,0,0
		c0,0-0.1-0.1-0.1-0.1c0,0,0-0.1-0.1-0.1c0,0,0,0,0-0.1c0,0,0,0,0,0c0,0,0,0,0,0s0,0,0,0c0,0,0,0,0,0l0,0c0,0,0,0,0,0c0,0,0,0,0,0
		c0,0,0,0,0,0c0,0,0,0,0,0c0,0,0,0,0,0c0,0,0,0,0,0c0,0,0,0,0,0c0,0,0,0,0,0l0,0c0,0,0,0,0,0c0,0,0,0,0,0c0,0,0,0,0,0c0,0,0,0,0,0
		c0,0,0,0,0,0c0,0,0,0,0,0s0,0,0,0l0,0l0,0c0,0,0,0,0,0c0,0,0,0,0,0h0c0,0,0,0,0,0c0,0,0,0,0,0c0,0,0,0-0.1,0c0,0,0,0-0.1,0
		c0,0,0,0-0.1,0c0,0-0.1,0-0.1,0l-0.4,0.2c0.1-0.1,0.2-0.1,0.3-0.1h0c0.1,0,0.3,0.1,0.4,0.1c0.1,0.1,0.3,0.2,0.4,0.3c0,0,0,0,0,0
		c0.1,0.1,0.2,0.3,0.3,0.4c0,0,0,0,0,0c0.1,0.2,0.2,0.3,0.2,0.5c0,0,0,0,0,0c0.1,0.2,0.1,0.3,0.1,0.5c0,0.2,0,0.3-0.1,0.4l0,0
		c-0.1,0.1-0.1,0.2-0.2,0.2l0.4-0.2c0.1,0,0.1-0.1,0.2-0.2c0,0,0,0,0-0.1c0,0,0,0,0,0v0c0,0,0,0,0-0.1c0,0,0,0,0-0.1c0,0,0,0,0-0.1
		c0,0,0,0,0,0c0,0,0,0,0,0c0,0,0,0,0,0C75.2,297.5,75.2,297.5,75.2,297.4C75.2,297.5,75.2,297.5,75.2,297.4L75.2,297.4
		C75.2,297.4,75.2,297.4,75.2,297.4"/>
	<path class="st43" d="M73.8,295.9c0.6,0.3,1,1.1,1,1.7c0,0.6-0.5,0.9-1,0.6c-0.6-0.3-1-1.1-1-1.7C72.8,295.8,73.3,295.6,73.8,295.9
		"/>
	<g class="st9">
		<g>
			<polygon class="st11" points="49.5,273.5 49.5,276 50.5,276.6 50.5,277.2 48.9,276.2 48.9,273.1 			"/>
			<polygon class="st11" points="52.5,275.2 52.5,275.7 51.5,275.2 51.5,275.9 52.4,276.4 52.4,277 51.5,276.5 51.5,277.2 
				52.5,277.8 52.5,278.3 50.9,277.4 50.9,274.3 			"/>
			<path class="st11" d="M53.9,275.9c0.1,0.1,0.3,0.2,0.4,0.2c0.1,0.1,0.2,0.2,0.3,0.3l0,0.7c0-0.1-0.1-0.1-0.1-0.2
				c-0.1-0.1-0.1-0.1-0.2-0.2c-0.1-0.1-0.1-0.1-0.2-0.1s-0.1-0.1-0.2-0.1c-0.1,0-0.1-0.1-0.2-0.1c-0.1,0-0.1,0-0.1,0
				c0,0-0.1,0-0.1,0c0,0,0,0.1,0,0.1c0,0.1,0,0.1,0,0.2c0,0.1,0.1,0.1,0.1,0.2c0,0.1,0.1,0.1,0.2,0.2c0.1,0.1,0.1,0.2,0.2,0.2
				c0.1,0.1,0.2,0.2,0.3,0.3c0.1,0.1,0.2,0.2,0.2,0.3c0.1,0.1,0.1,0.2,0.1,0.3c0,0.1,0,0.2,0,0.4c0,0.2,0,0.3-0.1,0.4
				c-0.1,0.1-0.1,0.1-0.2,0.2c-0.1,0-0.2,0-0.3,0c-0.1,0-0.3-0.1-0.4-0.2c-0.1-0.1-0.3-0.2-0.4-0.3c-0.1-0.1-0.3-0.2-0.3-0.3l0-0.7
				c0.1,0.2,0.2,0.3,0.4,0.4c0.1,0.1,0.3,0.2,0.4,0.3c0.1,0,0.1,0.1,0.2,0.1c0.1,0,0.1,0,0.1,0c0,0,0.1,0,0.1-0.1c0,0,0-0.1,0-0.1
				c0-0.1,0-0.1,0-0.2c0-0.1-0.1-0.1-0.1-0.2c-0.1-0.1-0.1-0.1-0.2-0.2c-0.1-0.1-0.1-0.2-0.2-0.3c-0.2-0.2-0.4-0.4-0.5-0.6
				c-0.1-0.2-0.2-0.4-0.2-0.6c0-0.2,0-0.3,0.1-0.4c0.1-0.1,0.1-0.1,0.2-0.2c0.1,0,0.2,0,0.3,0C53.6,275.8,53.8,275.9,53.9,275.9"/>
			<path class="st11" d="M56.1,277.2c0.1,0.1,0.3,0.2,0.4,0.2c0.1,0.1,0.2,0.2,0.3,0.3l0,0.7c0-0.1-0.1-0.1-0.1-0.2
				c-0.1-0.1-0.1-0.1-0.2-0.2c-0.1,0-0.1-0.1-0.2-0.1c-0.1,0-0.1-0.1-0.2-0.1c-0.1,0-0.1-0.1-0.2-0.1c-0.1,0-0.1,0-0.1,0
				s-0.1,0-0.1,0s0,0.1,0,0.1c0,0.1,0,0.1,0,0.2c0,0.1,0.1,0.1,0.1,0.2c0,0.1,0.1,0.1,0.2,0.2c0.1,0.1,0.1,0.2,0.2,0.2
				c0.1,0.1,0.2,0.2,0.3,0.3c0.1,0.1,0.2,0.2,0.2,0.3c0.1,0.1,0.1,0.2,0.1,0.3c0,0.1,0,0.2,0,0.4c0,0.2,0,0.3-0.1,0.4
				c-0.1,0.1-0.1,0.1-0.2,0.2c-0.1,0-0.2,0-0.3,0c-0.1,0-0.3-0.1-0.4-0.2c-0.1-0.1-0.3-0.2-0.4-0.3c-0.1-0.1-0.3-0.2-0.3-0.3l0-0.7
				c0.1,0.2,0.2,0.3,0.4,0.4c0.1,0.1,0.3,0.2,0.4,0.3c0.1,0,0.1,0.1,0.2,0.1c0.1,0,0.1,0,0.1,0c0,0,0.1,0,0.1-0.1c0,0,0-0.1,0-0.1
				c0-0.1,0-0.1,0-0.2c0-0.1-0.1-0.1-0.1-0.2c-0.1-0.1-0.1-0.1-0.2-0.2c-0.1-0.1-0.1-0.2-0.2-0.3c-0.2-0.2-0.4-0.4-0.5-0.6
				c-0.1-0.2-0.2-0.4-0.2-0.6c0-0.2,0-0.3,0.1-0.4c0.1-0.1,0.1-0.1,0.2-0.2c0.1,0,0.2,0,0.3,0C55.8,277.1,56,277.1,56.1,277.2"/>
			<path class="st11" d="M59.5,279.6c0.2,0.4,0.4,0.9,0.4,1.4c0,0.5-0.1,0.8-0.4,1c-0.3,0.2-0.6,0.1-1-0.1c-0.4-0.2-0.7-0.6-1-1
				c-0.2-0.4-0.4-0.9-0.4-1.4c0-0.5,0.1-0.8,0.4-1c0.3-0.2,0.6-0.1,1,0.1C58.9,278.8,59.3,279.2,59.5,279.6 M59,281.3
				c0.1-0.1,0.2-0.3,0.2-0.6c0-0.3-0.1-0.6-0.2-0.9c-0.1-0.2-0.3-0.4-0.5-0.6c-0.2-0.1-0.4-0.1-0.5,0s-0.2,0.3-0.2,0.6
				c0,0.3,0.1,0.6,0.2,0.8c0.1,0.3,0.3,0.4,0.5,0.6C58.7,281.4,58.9,281.4,59,281.3"/>
			<path class="st11" d="M62.8,281.1l0,3.1l-0.6-0.4l-1.1-2.6c-0.1-0.2-0.1-0.3-0.1-0.3c0,0.1,0,0.3,0,0.5l0,1.7l-0.6-0.3l0-3.1
				l0.7,0.4l1.1,2.5c0,0.1,0.1,0.2,0.1,0.3c0-0.1,0-0.2,0-0.4l0-1.7L62.8,281.1z"/>
			<polygon class="st11" points="65.6,282.7 65.6,285.3 66.2,285.7 66.2,286.2 64.5,285.2 64.5,284.7 65,285 65,283 64.5,282.9 
				64.5,282.3 			"/>
			<path class="st10" d="M54.8,283.3l-7-4c-0.4-0.2-0.7,0-0.7,0.4v6c0,0.5,0.3,1.1,0.7,1.3l2.7,1.6l0.8,2l0.8-1.1l2.7,1.6
				c0.4,0.2,0.7,0,0.7-0.4v-6C55.5,284.1,55.2,283.5,54.8,283.3"/>
			<polygon class="st10" points="65.5,296.4 65.5,297.2 57.5,292.5 57.5,291.8 			"/>
			<polygon class="st10" points="66.9,295.7 66.9,296.5 57.5,291 57.5,290.3 			"/>
			<polygon class="st10" points="68.4,293.5 68.4,294.3 57.5,288 57.5,287.3 			"/>
			<polygon class="st10" points="68.4,290.7 68.4,292.3 57.5,286 57.5,284.4 			"/>
			<polygon class="st10" points="68.4,295 68.3,295.8 57.5,289.5 57.5,288.8 			"/>
		</g>
	</g>
	<path class="st8" d="M451,302.8L235,178.1c-1.8-1-2.4-3.3-1.4-5.1c1-1.8,3.3-2.4,5.1-1.4l216,124.7c1.8,1,2.4,3.3,1.4,5.1
		C455,303.2,452.7,303.9,451,302.8"/>
	<path class="st1" d="M454.8,304.2c0-0.3,0.1-0.6,0.2-0.9c0,0,0-0.1,0-0.1c0.1-0.3,0.2-0.6,0.3-0.9c0,0,0,0,0,0
		c0.1-0.3,0.3-0.6,0.5-0.9c0,0,0,0,0,0c0.2-0.3,0.4-0.6,0.6-0.9l0.1-0.1c0.2-0.2,0.4-0.5,0.6-0.7c0,0,0.1-0.1,0.1-0.1
		c0.2-0.2,0.3-0.3,0.5-0.5c0.1-0.1,0.2-0.1,0.2-0.2c0.2-0.2,0.5-0.4,0.8-0.5c0.3-0.1,0.5-0.3,0.7-0.3c0,0,0.1,0,0.1,0
		c0.2-0.1,0.4-0.1,0.7-0.1c0,0,0,0,0.1,0c0.2,0,0.4,0,0.6,0c0,0,0,0,0,0c0.2,0,0.4,0.1,0.6,0.2l-4.5-2.6c0,0,0,0,0,0
		c-0.1,0-0.1-0.1-0.2-0.1c-0.1,0-0.1-0.1-0.2-0.1c0,0-0.1,0-0.1,0c0,0,0,0,0,0c0,0,0,0,0,0c-0.1,0-0.2,0-0.2,0c-0.1,0-0.2,0-0.3,0
		c0,0-0.1,0-0.1,0c0,0,0,0-0.1,0c-0.1,0-0.1,0-0.2,0c-0.1,0-0.2,0-0.4,0.1c0,0-0.1,0-0.2,0.1c0,0-0.1,0-0.1,0c-0.1,0-0.1,0-0.2,0.1
		c-0.2,0.1-0.4,0.2-0.6,0.3c-0.3,0.1-0.5,0.3-0.8,0.5c-0.1,0.1-0.2,0.1-0.2,0.2c-0.1,0.1-0.2,0.2-0.4,0.3c-0.1,0.1-0.1,0.1-0.2,0.2
		c0,0-0.1,0.1-0.1,0.1c-0.1,0.1-0.1,0.1-0.2,0.2c-0.1,0.1-0.2,0.3-0.3,0.4c0,0-0.1,0.1-0.1,0.1l-0.1,0.1c0,0-0.1,0.1-0.1,0.1
		c-0.1,0.1-0.2,0.2-0.2,0.3c-0.1,0.1-0.1,0.2-0.2,0.3c0,0,0,0,0,0c0,0,0,0,0,0c-0.1,0.1-0.1,0.2-0.2,0.3c-0.1,0.1-0.1,0.2-0.2,0.3
		c-0.1,0.1-0.1,0.2-0.1,0.3c0,0,0,0,0,0c0,0,0,0,0,0c-0.1,0.1-0.1,0.2-0.1,0.4c0,0.1-0.1,0.3-0.1,0.4c0,0.1,0,0.1-0.1,0.2
		c0,0,0,0.1,0,0.1c0,0,0,0.1,0,0.1c0,0.2-0.1,0.3-0.1,0.5c0,0.1,0,0.2,0,0.3c0,0,0,0.1,0,0.1c0,0,0,0.1,0,0.1c0,0.3-0.1,0.5-0.1,0.8
		c0,1.3,0.4,2.1,1.2,2.6l4.5,2.6c-0.7-0.4-1.2-1.3-1.2-2.6c0-0.3,0-0.6,0.1-0.9C454.8,304.3,454.8,304.3,454.8,304.2"/>
	<path class="st0" d="M458.7,298.4c2.2-1.3,4-0.3,4,2.3c0,2.5-1.8,5.6-4,6.9c-2.2,1.3-4,0.3-4-2.3
		C454.7,302.7,456.5,299.6,458.7,298.4"/>
</g>
</svg>
